<?xml version="1.0" encoding="utf-8"?>
<svg height="510" version="1.1" width="387" xmlns="http://www.w3.org/2000/svg">
<path d="M0 0 C2.16874252 0.50603992 3.99967627 0.99983813 6 2 C8.36950521 2.38923527 10.7457572 2.7380578 13.125 3.0625 C14.40632812 3.23910156 15.68765625 3.41570313 17.0078125 3.59765625 C18.48894531 3.79681641 18.48894531 3.79681641 20 4 C20 3.34 20 2.68 20 2 C20.99 2.495 20.99 2.495 22 3 C26.9676328 4.93858841 31.73217437 5.55516139 37 6 C37 6.66 37 7.32 37 8 C38.010625 8.144375 39.02125 8.28875 40.0625 8.4375 C41.361875 8.623125 42.66125 8.80875 44 9 C45.27875 9.165 46.5575 9.33 47.875 9.5 C51 10 51 10 52 11 C54.33297433 11.04092937 56.66705225 11.04241723 59 11 C58.01 11.66 57.02 12.32 56 13 C57.6210103 13.69685498 59.24696066 14.38222861 60.875 15.0625 C61.77992188 15.44535156 62.68484375 15.82820313 63.6171875 16.22265625 C65.98066862 17.3023998 65.98066862 17.3023998 68 16 C68.52335938 16.58136719 69.04671875 17.16273437 69.5859375 17.76171875 C72.39461989 20.36588543 75.25194722 22.00414777 78.625 23.8125 C79.77226562 24.43769531 80.91953125 25.06289063 82.1015625 25.70703125 C83.05804688 26.13371094 84.01453125 26.56039062 85 27 C85.66 26.67 86.32 26.34 87 26 C89 29 89 29 90 31 C91.32 31 92.64 31 94 31 C96.5 33.3125 96.5 33.3125 99 36 C103.07708782 39.56868403 103.07708782 39.56868403 108 41 C108.33 42.65 108.66 44.3 109 46 C109.969375 46.268125 110.93875 46.53625 111.9375 46.8125 C112.948125 47.204375 113.95875 47.59625 115 48 C115.33 48.99 115.66 49.98 116 51 C116.99 51.33 117.98 51.66 119 52 C119.19142578 52.84111328 119.19142578 52.84111328 119.38671875 53.69921875 C120.28683716 57.07609611 122.5453495 59.25226702 124.8125 61.8125 C128.42999031 66.00608075 131.4374659 70.08847631 134 75 C134.66 75.66 135.32 76.32 136 77 C136.66666667 78.33333333 137.33333333 79.66666667 138 81 C138.66 81.66 139.32 82.32 140 83 C140.68025637 84.99541868 141.34490497 86.99617991 142 89 C142.97004121 91.01470098 143.96244882 93.01922047 145 95 C145.66 95 146.32 95 147 95 C147.33 94.34 147.66 93.68 148 93 C147.67 94.32 147.34 95.64 147 97 C146.34 97 145.68 97 145 97 C145.32613281 97.81082031 145.65226562 98.62164062 145.98828125 99.45703125 C148.78867552 106.55301556 151.17411247 113.59253758 153 121 C153.99 121 154.98 121 156 121 C155.65195312 121.69480469 155.30390625 122.38960938 154.9453125 123.10546875 C153.79006793 126.64280853 154.19351834 128.66531113 154.875 132.3125 C157.7756478 150.49313903 157.09651989 169.5586518 151 187 C151.66 187.33 152.32 187.66 153 188 C152.34 188.33 151.68 188.66 151 189 C151.17406709 194.291366 151.17406709 194.291366 153.5 198.75 C153.995 199.1625 154.49 199.575 155 200 C155.16048828 200.82757813 155.16048828 200.82757813 155.32421875 201.671875 C156.30360567 205.04594787 158.32365086 207.65103621 160.3125 210.5 C166.04981522 218.91187668 171.24163047 227.61283683 176.42822266 236.37109375 C178.03804831 239.06363843 179.67683722 241.73653846 181.32421875 244.40625 C181.86643066 245.29094971 182.40864258 246.17564941 182.96728516 247.0871582 C183.99782342 248.76702706 185.03482234 250.44295731 186.07958984 252.11401367 C190.25556554 258.96063821 193.63114434 265.79512354 193 274 C192.01 273.67 191.02 273.34 190 273 C189.814375 273.7425 189.62875 274.485 189.4375 275.25 C186.97234781 279.96594332 182.5415603 281.39546655 177.8125 283.25 C172.52419997 284.29032132 167.37107667 284.15875103 162 284 C161.67 284.66 161.34 285.32 161 286 C158.9375 286.625 158.9375 286.625 157 287 C155.79530108 291.89180774 156.24189388 294.56383385 158.3125 299.125 C158.76238281 300.13820313 159.21226562 301.15140625 159.67578125 302.1953125 C160.45594449 303.84769363 161.26679842 305.48715752 162.14453125 307.08984375 C163.72368177 310.61589217 163.54083643 314.22766591 163 318 C160.53950953 322.25854119 157.14959071 324.45366025 153 327 C153.66 327.845625 154.32 328.69125 155 329.5625 C157.27793159 333.47769492 157.33560711 335.55320579 157 340 C157 340.99 157 341.98 157 343 C155.3545622 344.68762851 153.68711423 346.3540349 152 348 C151.67 348.99 151.34 349.98 151 351 C150.34 351 149.68 351 149 351 C148.77303639 357.74586274 148.58311732 364.58481758 151 371 C151.66 371.33 152.32 371.66 153 372 C153.08090971 373.62418745 153.13914995 375.24951745 153.1875 376.875 C153.22230469 377.77992188 153.25710938 378.68484375 153.29296875 379.6171875 C153.19628906 380.40351563 153.09960938 381.18984375 153 382 C152.01 382.66 151.02 383.32 150 384 C149.13770219 385.74886699 149.13770219 385.74886699 148.5625 387.75 C145.41895342 396.59022743 140.20753958 400.90821388 131.9765625 405.0078125 C125.67291 407.4954608 119.06807796 407.52909349 112.37890625 407.7890625 C109.13272425 407.77088116 109.13272425 407.77088116 107 409 C107 408.34 107 407.68 107 407 C106.030625 407.01160156 105.06125 407.02320313 104.0625 407.03515625 C97.56742383 407.0858607 91.1349682 407.0643852 84.6574707 406.53930664 C72.74880271 405.54320857 72.74880271 405.54320857 62.0625 410.0625 C59.42219543 413.82293378 58.1816178 417.5905482 57 422 C57.66 422 58.32 422 59 422 C58.690625 422.5775 58.38125 423.155 58.0625 423.75 C57.07416636 425.84294184 56.4831387 427.74535275 56 430 C56.66 430 57.32 430 58 430 C57 433 56 436 55 439 C55.66 439.33 56.32 439.66 57 440 C56.34 440 55.68 440 55 440 C55.03552979 440.86802246 55.07105957 441.73604492 55.10766602 442.63037109 C55.23678234 445.84685482 55.36111144 449.06347744 55.48217773 452.28027344 C55.53559149 453.67325222 55.59092043 455.06615893 55.64819336 456.45898438 C55.73012069 458.45943602 55.80462098 460.4601875 55.87890625 462.4609375 C55.9260376 463.66540527 55.97316895 464.86987305 56.02172852 466.11083984 C56 469 56 469 55 471 C55.66 471.33 56.32 471.66 57 472 C51.20674296 474.89662852 43.60261211 472.70242983 37.68359375 471.03125 C36.94166275 470.8314856 36.19973175 470.63172119 35.43531799 470.42590332 C33.09969328 469.79446761 30.76869711 469.14756817 28.4375 468.5 C26.84077658 468.06536971 25.24377315 467.63176671 23.64648438 467.19921875 C19.76098983 466.14464225 15.87956122 465.07618945 12 464 C11.67 464.99 11.34 465.98 11 467 C10.67 466.01 10.34 465.02 10 464 C9.01 464 8.02 464 7 464 C7 463.34 7 462.68 7 462 C6.46375 461.96261719 5.9275 461.92523438 5.375 461.88671875 C-0.89213383 461.36102167 -6.96772219 460.3180629 -13.11328125 459.01635742 C-17.85516655 458.05863383 -22.19191166 457.87685297 -27 458 C-27 457.34 -27 456.68 -27 456 C-28.21558594 456 -29.43117187 456 -30.68359375 456 C-35.45572917 456 -40.22786458 456 -45 456 C-45.33 455.34 -45.66 454.68 -46 454 C-47.32 454 -48.64 454 -50 454 C-50.33 454.66 -50.66 455.32 -51 456 C-54.3 455.67 -57.6 455.34 -61 455 C-60.67 454.34 -60.34 453.68 -60 453 C-76.71170601 452.32179153 -93.367775 451.93587733 -110.09228516 452.01953125 C-120.09381756 452.05038827 -130.02522633 451.71157621 -140 451 C-139.85978136 449.56988309 -139.71420624 448.14029078 -139.56640625 446.7109375 C-139.48592041 445.91478027 -139.40543457 445.11862305 -139.32250977 444.29833984 C-138.91419096 441.38848877 -137.98591216 438.76055405 -137 436 C-137 435.01 -137 434.02 -137 433 C-136.57203125 431.90300781 -136.1440625 430.80601562 -135.703125 429.67578125 C-133.37500245 423.68976733 -132.12674602 417.4463478 -130.75 411.1875 C-130.46898437 409.96095703 -130.18796875 408.73441406 -129.8984375 407.47070312 C-129.63804687 406.29830078 -129.37765625 405.12589844 -129.109375 403.91796875 C-128.87186523 402.85344482 -128.63435547 401.7889209 -128.38964844 400.69213867 C-127.78113765 397.90848876 -127.78113765 397.90848876 -129 395 C-128.01 395 -127.02 395 -126 395 C-125.95101562 394.42894531 -125.90203125 393.85789062 -125.8515625 393.26953125 C-125.27811664 387.05060979 -124.37540202 380.93809793 -123.3046875 374.78515625 C-122.79501833 371.91907861 -122.79501833 371.91907861 -124 369 C-124 365 -124 365 -122.54296875 362.9140625 C-120.2254943 358.53726266 -120.42893913 354.25878982 -120.3125 349.375 C-120.27833984 348.42109375 -120.24417969 347.4671875 -120.20898438 346.484375 C-120.08832802 342.98780309 -120 339.4987436 -120 336 C-119.97679687 335.13246094 -119.95359375 334.26492188 -119.9296875 333.37109375 C-119.91164062 332.40300781 -119.89359375 331.43492187 -119.875 330.4375 C-119.85179687 329.46683594 -119.82859375 328.49617188 -119.8046875 327.49609375 C-119.74170707 324.82509864 -119.74170707 324.82509864 -122 323 C-121.34 323 -120.68 323 -120 323 C-120.6185155 319.79038175 -121.24597644 316.58257402 -121.875 313.375 C-122.04902344 312.47136719 -122.22304687 311.56773437 -122.40234375 310.63671875 C-123.32376667 305.96135062 -124.3461286 301.48482245 -126 297 C-126.66 297 -127.32 297 -128 297 C-128 296.34 -128 295.68 -128 295 C-128.66 294.34 -129.32 293.68 -130 293 C-130 292.34 -130 291.68 -130 291 C-129.34 291 -128.68 291 -128 291 C-131.78175849 281.7585697 -135.99392152 272.87567174 -140.8125 264.125 C-141.53240112 262.81450684 -141.53240112 262.81450684 -142.2668457 261.47753906 C-144.73409287 256.94575989 -144.73409287 256.94575989 -148 253 C-148.72652999 251.70869575 -149.41080735 250.3931424 -150.0625 249.0625 C-150.40410156 248.37285156 -150.74570313 247.68320312 -151.09765625 246.97265625 C-152 245 -152 245 -153 242 C-153.63767757 240.60042195 -154.28440399 239.20494999 -154.9375 237.8125 C-156.34457999 234.71996089 -157.35628281 231.82161477 -158.0625 228.5 C-158.371875 227.345 -158.68125 226.19 -159 225 C-159.99 224.67 -160.98 224.34 -162 224 C-162 222.33333333 -162 220.66666667 -162 219 C-162.2784375 218.17242187 -162.556875 217.34484375 -162.84375 216.4921875 C-170.18074377 194.33248333 -171.60829534 171.73516915 -170.26757812 148.63476562 C-170.21923828 147.70470703 -170.17089844 146.77464844 -170.12109375 145.81640625 C-170.0739624 144.98568604 -170.02683105 144.15496582 -169.97827148 143.29907227 C-169.99975011 141.0264407 -170.35169678 139.17005393 -171 137 C-170.34 137 -169.68 137 -169 137 C-168.73445312 135.70964844 -168.46890625 134.41929687 -168.1953125 133.08984375 C-167.83867809 131.3723675 -167.48189961 129.65492116 -167.125 127.9375 C-166.95097656 127.08994141 -166.77695313 126.24238281 -166.59765625 125.36914062 C-165.04070877 117.90155918 -163.13019279 110.97179304 -160 104 C-160.66 103.67 -161.32 103.34 -162 103 C-161.01 103 -160.02 103 -159 103 C-158.896875 102.360625 -158.79375 101.72125 -158.6875 101.0625 C-157.76096927 96.93522674 -156.38339371 92.99357051 -155 89 C-154.34 89 -153.68 89 -153 89 C-152.67 87.35 -152.34 85.7 -152 84 C-151.34 84 -150.68 84 -150 84 C-149.75765625 83.14148438 -149.5153125 82.28296875 -149.265625 81.3984375 C-147.87115371 77.65402386 -146.06474174 74.87666101 -143.75 71.625 C-143.35031006 71.06208252 -142.95062012 70.49916504 -142.53881836 69.91918945 C-141.36653209 68.27421852 -140.18345837 66.63695166 -139 65 C-138.38769531 64.13503906 -137.77539062 63.27007812 -137.14453125 62.37890625 C-134.20703441 58.30992915 -134.20703441 58.30992915 -133 57 C-132.34 57 -131.68 57 -131 57 C-130.7525 56.4225 -130.505 55.845 -130.25 55.25 C-128.83073705 52.6953267 -127.05930146 51.05930146 -125 49 C-124.690625 48.29875 -124.38125 47.5975 -124.0625 46.875 C-123 45 -123 45 -120.7578125 44.171875 C-117.43010764 42.75783611 -115.4230131 40.86308359 -112.8125 38.375 C-108.20977918 34 -108.20977918 34 -106 34 C-105.505 33.01 -105.505 33.01 -105 32 C-103 30 -103 30 -100 29 C-98.17944553 27.91266655 -96.36057993 26.82229967 -94.55444336 25.71118164 C-85.38026374 20.08663979 -76.05468673 15.78544178 -66 12 C-65.33331299 11.7407373 -64.66662598 11.48147461 -63.97973633 11.21435547 C-43.48911812 3.32024668 -21.77036292 1.40445816 0 2 C0 1.34 0 0.68 0 0 Z M-19.6875 55.375 C-20.58533203 55.50132813 -21.48316406 55.62765625 -22.40820312 55.7578125 C-29.57336091 56.80765247 -36.14316613 58.65864209 -43 61 C-42.01 61.66 -41.02 62.32 -40 63 C-41.0828125 62.6596875 -41.0828125 62.6596875 -42.1875 62.3125 C-45.82286929 61.90857008 -47.01647806 62.98612269 -50 65 C-51.15048828 65.45439453 -51.15048828 65.45439453 -52.32421875 65.91796875 C-55.15924742 67.0643964 -57.68283481 68.44167989 -60.3125 70 C-61.19550781 70.515625 -62.07851562 71.03125 -62.98828125 71.5625 C-63.65214844 72.036875 -64.31601563 72.51125 -65 73 C-65 73.66 -65 74.32 -65 75 C-65.721875 75.2475 -66.44375 75.495 -67.1875 75.75 C-70.27606582 77.12269592 -72.51011418 78.72353296 -75 81 C-75 81.66 -75 82.32 -75 83 C-75.59296875 83.2578125 -76.1859375 83.515625 -76.796875 83.78125 C-79.17660965 85.09769895 -80.50978792 86.42580782 -82.25 88.5 C-82.77078125 89.1084375 -83.2915625 89.716875 -83.828125 90.34375 C-85.19252997 91.93395821 -85.19252997 91.93395821 -85 94 C-86.485 94.495 -86.485 94.495 -88 95 C-88.73323796 97.01508358 -88.73323796 97.01508358 -89 99 C-89.66 99 -90.32 99 -91 99 C-91 99.99 -91 100.98 -91 102 C-91.66 102 -92.32 102 -93 102 C-100.66619297 114.85719089 -100.66619297 114.85719089 -105 129 C-104.67 129.66 -104.34 130.32 -104 131 C-104.47179687 131.41121094 -104.94359375 131.82242188 -105.4296875 132.24609375 C-109.99339706 137.34337134 -109.28643031 146.65246253 -109.6875 153.1875 C-109.73600098 153.94748291 -109.78450195 154.70746582 -109.83447266 155.49047852 C-110.07358357 160.15822879 -109.79450304 164.39427185 -109 169 C-109 169.33 -109 169.66 -109 170 C-108.86238007 171.77149056 -108.71490818 173.54222042 -108.5625 175.3125 C-108.48128906 176.27800781 -108.40007812 177.24351562 -108.31640625 178.23828125 C-108.04752111 180.58521701 -107.64109108 182.73193828 -107 185 C-106.01 185 -105.02 185 -104 185 C-104 188 -104 188 -104.59765625 189.90625 C-106.00187216 197.21362598 -98.2559967 207.71742643 -95 214 C-94.45666016 215.12921875 -94.45666016 215.12921875 -93.90234375 216.28125 C-92.34212787 219.36378177 -91.59775967 220.79621829 -88.25 221.9375 C-87.5075 221.958125 -86.765 221.97875 -86 222 C-86.24234375 222.56460938 -86.4846875 223.12921875 -86.734375 223.7109375 C-87.26445315 226.12346044 -87.26445315 226.12346044 -85.515625 228.2265625 C-75.68111636 239.9056333 -75.68111636 239.9056333 -63 247 C-62.67 247.66 -62.34 248.32 -62 249 C-61.67 249 -61.34 249 -61 249 C-60.30777344 249.5775 -59.61554688 250.155 -58.90234375 250.75 C-40.82710628 264.76256633 -15.39269558 268.99798825 6.84765625 266.58203125 C14.93535639 266.1094217 14.93535639 266.1094217 22 263 C23.216875 262.773125 24.43375 262.54625 25.6875 262.3125 C47.59230379 257.54907441 69.04273356 241.00512255 81.3828125 222.5234375 C81.91648437 221.69070312 82.45015625 220.85796875 83 220 C83.51304687 219.20851562 84.02609375 218.41703125 84.5546875 217.6015625 C94.64535462 201.44603846 102.35973542 181.37622979 101 162 C100.67 161.67 100.34 161.34 100 161 C100 158 100 158 101 157 C101.41988319 151.01666448 100.70059161 145.492524 99.625 139.625 C99.43599121 138.57203735 99.43599121 138.57203735 99.24316406 137.49780273 C98.58422992 134.09673304 97.94748662 131.92122992 96 129 C96 128.01 96 127.02 96 126 C93.40136351 118.63535362 89.98005197 111.70681098 86 105 C85.01 105 84.02 105 83 105 C83.33 104.01 83.66 103.02 84 102 C82.83390675 99.90539607 82.83390675 99.90539607 81.125 97.875 C80.57070313 97.17117187 80.01640625 96.46734375 79.4453125 95.7421875 C77.86717902 93.83989687 77.21478797 93.10739398 75 92 C74.566875 91.0409375 74.566875 91.0409375 74.125 90.0625 C73.17176549 87.84793921 73.17176549 87.84793921 71 87 C69 86 69 86 68 83.9375 C67.67 83.298125 67.34 82.65875 67 82 C66.360625 81.855625 65.72125 81.71125 65.0625 81.5625 C63 81 63 81 61.6640625 78.671875 C54.81479472 67.67445912 33.13956879 60.2848922 21 57.25 C20.01 57.12625 20.01 57.12625 19 57 C18.67 57.33 18.34 57.66 18 58 C17.01 57.34 16.02 56.68 15 56 C10.66929802 54.76265658 6.46617275 54.92430216 2 55 C1.67 55.66 1.34 56.32 1 57 C1 56.01 1 55.02 1 54 C-6.03363951 53.81233518 -12.73601291 54.32342959 -19.6875 55.375 Z M-89 223 C-88.34 223.66 -87.68 224.32 -87 225 C-87 224.34 -87 223.68 -87 223 C-87.66 223 -88.32 223 -89 223 Z M191 268 C192 272 192 272 192 272 Z M-128 291 C-127 293 -127 293 -127 293 Z " fill="#20B2AA" transform="translate(181,19)"/>
<path d="M0 0 C0.63615234 0.58007812 0.63615234 0.58007812 1.28515625 1.171875 C4.28271249 3.83344142 7.1300609 6.19137943 10.6875 8.0625 C14.11756231 10.06876286 15.93950742 11.62079217 18 15 C18.49609375 17.1875 18.49609375 17.1875 18 20 C16.12230763 22.74638935 13.89023745 25.13238767 11.625 27.5625 C10.42600391 28.87294124 9.23055813 30.18664164 8.0390625 31.50390625 C7.50490723 32.07955322 6.97075195 32.6552002 6.42041016 33.24829102 C4.93919211 35.07499082 4.03381747 36.89676234 3 39 C1.87281449 40.16033802 0.74064204 41.31661276 -0.42578125 42.4375 C-2.4612291 44.45779563 -4.38766173 46.56166092 -6.3125 48.6875 C-7.00988281 49.45449219 -7.70726562 50.22148437 -8.42578125 51.01171875 C-10.20691413 52.83866723 -10.20691413 52.83866723 -10 55 C-10.66 55 -11.32 55 -12 55 C-12 55.66 -12 56.32 -12 57 C-12.66 57 -13.32 57 -14 57 C-14 57.66 -14 58.32 -14 59 C-14.66 59 -15.32 59 -16 59 C-16 59.99 -16 60.98 -16 62 C-17.1142039 63.18173141 -18.23994987 64.3547516 -19.421875 65.46875 C-21.30997612 67.30076891 -23.06209448 69.22363039 -24.8125 71.1875 C-25.71935547 72.19876953 -25.71935547 72.19876953 -26.64453125 73.23046875 C-28.20270013 74.89311648 -28.20270013 74.89311648 -28 77 C-29.64429829 78.68873879 -31.31384218 80.35305515 -33 82 C-33.495 82.66 -33.99 83.32 -34.5 84 C-36.43905112 86.58540149 -38.68824171 88.74603566 -41 91 C-41.598125 91.598125 -42.19625 92.19625 -42.8125 92.8125 C-43.204375 93.204375 -43.59625 93.59625 -44 94 C-43.67 94.99 -43.34 95.98 -43 97 C-43.59425781 97.09667969 -44.18851562 97.19335938 -44.80078125 97.29296875 C-47.45678478 98.14685266 -48.41517703 99.18480122 -50.1875 101.3125 C-50.69667969 101.90675781 -51.20585937 102.50101562 -51.73046875 103.11328125 C-53.06503328 105.09664946 -53.44198454 106.70430482 -54 109 C-55.32467746 109.6837045 -56.65863633 110.34964186 -58 111 C-59.26804566 113.0335948 -59.26804566 113.0335948 -60 115 C-60.66 115 -61.32 115 -62 115 C-62.33 115.66 -62.66 116.32 -63 117 C-65.5625 117.4375 -65.5625 117.4375 -69 117 C-71.64524651 114.94645337 -73.77605733 112.49288458 -76 110 C-76.97311761 109.05622262 -77.95149166 108.11780165 -78.9375 107.1875 C-81 105 -81 105 -81 103 C-81.60569824 102.90605957 -82.21139648 102.81211914 -82.83544922 102.71533203 C-85.52789364 101.82554384 -86.09317232 100.8997685 -87.6328125 98.5546875 C-91.46441214 93.15090224 -96.13258504 88.72457113 -100.875 84.125 C-102.6060495 82.44471441 -104.33286471 80.76005163 -106.0546875 79.0703125 C-106.81249512 78.33570801 -107.57030273 77.60110352 -108.35107422 76.84423828 C-110 75 -110 75 -110 73 C-112.49064888 72.31292445 -114.37886292 72 -117 72 C-118.4606285 69.35261084 -119 68.10551666 -119 65 C-119.33 64.67 -119.66 64.34 -120 64 C-120.4483784 60.24749978 -120.37627841 58.5346691 -118.171875 55.40234375 C-116.97304687 54.18224609 -116.97304687 54.18224609 -115.75 52.9375 C-113.32445885 50.4287295 -111.02940882 48.03932316 -108.9375 45.2421875 C-107 43 -107 43 -103.25 42.1875 C-101.64125 42.0946875 -101.64125 42.0946875 -100 42 C-99.608125 42.7425 -99.21625 43.485 -98.8125 44.25 C-97.1573466 47.07625435 -97.1573466 47.07625435 -94.65234375 48.84765625 C-91.8943194 51.08575848 -89.92952397 53.39044424 -87.75 56.1875 C-84.07875462 60.77043798 -80.21995697 64.9633867 -76.0078125 69.05078125 C-74.32776189 70.68180315 -72.72392381 72.35347066 -71.125 74.0625 C-69.10980196 76.33687693 -69.10980196 76.33687693 -66 76 C-64.16528544 74.27657141 -62.5283298 72.5727202 -60.875 70.6875 C-60.38708984 70.14279053 -59.89917969 69.59808105 -59.39648438 69.03686523 C-55.57488034 64.7375607 -51.91207473 60.31628676 -48.3046875 55.8359375 C-45.79205734 52.74412479 -43.21355798 49.71559868 -40.625 46.6875 C-35.72946637 40.94334959 -31.04360709 35.05041925 -26.41015625 29.09375 C-24.29456948 26.37811836 -22.15714188 23.68266368 -20 21 C-20.495 20.01 -20.495 20.01 -21 19 C-20.4225 18.95875 -19.845 18.9175 -19.25 18.875 C-15.85207034 17.55358291 -14.89969447 15.05102445 -13 12 C-11.41863485 9.88355057 -9.7779351 7.96508616 -8 6 C-7.34 6 -6.68 6 -6 6 C-5.67 5.01 -5.34 4.02 -5 3 C-2.525 2.505 -2.525 2.505 0 2 C0 1.34 0 0.68 0 0 Z " fill="#20B2AA" transform="translate(232,124)"/>
<path d="M0 0 C4 3 4 3 4.390625 5.48046875 C4.34421875 6.37378906 4.2978125 7.26710938 4.25 8.1875 C4.21390625 9.08855469 4.1778125 9.98960937 4.140625 10.91796875 C4.09421875 11.60503906 4.0478125 12.29210937 4 13 C2.02 13.99 2.02 13.99 0 15 C0 10.05 0 5.1 0 0 Z " fill="#20B2AA" transform="translate(330,388)"/>
<path d="M0 0 C0.66 0.66 1.32 1.32 2 2 C-1.63 5.63 -5.26 9.26 -9 13 C-9 10 -9 10 -6.625 7.5625 C-5.75875 6.716875 -4.8925 5.87125 -4 5 C-3.30419733 3.68163705 -2.62775567 2.35208914 -2 1 C-1.34 0.67 -0.68 0.34 0 0 Z " fill="#20B2AA" transform="translate(60,63)"/>
<path d="M0 0 C3.96 0 7.92 0 12 0 C12 0.33 12 0.66 12 1 C8.04 1 4.08 1 0 1 C0 0.67 0 0.34 0 0 Z " fill="#20B2AA" transform="translate(168,19)"/>
<path d="M0 0 C3.63 0 7.26 0 11 0 C11 0.33 11 0.66 11 1 C7.37 1 3.74 1 0 1 C0 0.67 0 0.34 0 0 Z " fill="#20B2AA" transform="translate(105,472)"/>
<path d="M0 0 C0.99 0 1.98 0 3 0 C3.33 0.99 3.66 1.98 4 3 C2.35 2.67 0.7 2.34 -1 2 C-0.67 1.34 -0.34 0.68 0 0 Z " fill="#20B2AA" transform="translate(147,278)"/>
<path d="M0 0 C1.32 0.99 2.64 1.98 4 3 C2.35 3 0.7 3 -1 3 C-0.67 2.01 -0.34 1.02 0 0 Z " fill="#20B2AA" transform="translate(237,161)"/>
<path d="M0 0 C0.33 0 0.66 0 1 0 C1 1.98 1 3.96 1 6 C0.67 6 0.34 6 0 6 C0 4.02 0 2.04 0 0 Z " fill="#20B2AA" transform="translate(331,381)"/>
<path d="M0 0 C1.98 0.495 1.98 0.495 4 1 C2.35 1.33 0.7 1.66 -1 2 C-0.67 1.34 -0.34 0.68 0 0 Z " fill="#20B2AA" transform="translate(192,282)"/>
<path d="M0 0 C0.33 0.66 0.66 1.32 1 2 C-0.32 2.33 -1.64 2.66 -3 3 C-3 2.34 -3 1.68 -3 1 C-2.01 0.67 -1.02 0.34 0 0 Z " fill="#20B2AA" transform="translate(220,273)"/>
<path d="M0 0 C1.98 0.495 1.98 0.495 4 1 C2.35 1.33 0.7 1.66 -1 2 C-0.67 1.34 -0.34 0.68 0 0 Z " fill="#20B2AA" transform="translate(186,75)"/>
<path d="M0 0 C0.99 0 1.98 0 3 0 C3 0.66 3 1.32 3 2 C2.01 2 1.02 2 0 2 C0 1.34 0 0.68 0 0 Z " fill="#20B2AA" transform="translate(106,31)"/>
<path d="M0 0 C1.98 0 3.96 0 6 0 C6 0.33 6 0.66 6 1 C4.02 1 2.04 1 0 1 C0 0.67 0 0.34 0 0 Z " fill="#20B2AA" transform="translate(190,20)"/>
<path d="M0 0 C1.65 0 3.3 0 5 0 C5 0.33 5 0.66 5 1 C3.35 1 1.7 1 0 1 C0 0.67 0 0.34 0 0 Z " fill="#20B2AA" transform="translate(173,480)"/>
<path d="M0 0 C1.65 0 3.3 0 5 0 C5 0.33 5 0.66 5 1 C3.35 1 1.7 1 0 1 C0 0.67 0 0.34 0 0 Z " fill="#20B2AA" transform="translate(298,427)"/>
<path d="M0 0 C0.33 1.32 0.66 2.64 1 4 C0.34 3.01 -0.32 2.02 -1 1 C-0.67 0.67 -0.34 0.34 0 0 Z " fill="#20B2AA" transform="translate(53,407)"/>
<path d="M0 0 C0.33 0 0.66 0 1 0 C1 1.65 1 3.3 1 5 C0.67 5 0.34 5 0 5 C0 3.35 0 1.7 0 0 Z " fill="#20B2AA" transform="translate(339,353)"/>
<path d="M0 0 C1.32 0.33 2.64 0.66 4 1 C3.01 1.495 3.01 1.495 2 2 C1.34 1.34 0.68 0.68 0 0 Z " fill="#20B2AA" transform="translate(344,304)"/>
<path d="M0 0 C1.65 0 3.3 0 5 0 C5 0.33 5 0.66 5 1 C3.35 1 1.7 1 0 1 C0 0.67 0 0.34 0 0 Z " fill="#20B2AA" transform="translate(163,283)"/>
<path d="M0 0 C0.33 0 0.66 0 1 0 C1 1.65 1 3.3 1 5 C0.67 5 0.34 5 0 5 C0 3.35 0 1.7 0 0 Z " fill="#20B2AA" transform="translate(74,194)"/>
<path d="M0 0 C0.33 0 0.66 0 1 0 C1 1.65 1 3.3 1 5 C0.67 5 0.34 5 0 5 C0 3.35 0 1.7 0 0 Z " fill="#20B2AA" transform="translate(74,158)"/>
<path d="M0 0 C0.99 0 1.98 0 3 0 C3 0.66 3 1.32 3 2 C2.01 1.67 1.02 1.34 0 1 C0 0.67 0 0.34 0 0 Z " fill="#20B2AA" transform="translate(238,158)"/>
<path d="M0 0 C0.66 1.32 1.32 2.64 2 4 C1.34 4 0.68 4 0 4 C0 2.68 0 1.36 0 0 Z " fill="#20B2AA" transform="translate(75,154)"/>
<path d="M0 0 C1.98 0.99 1.98 0.99 4 2 C2.68 2 1.36 2 0 2 C0 1.34 0 0.68 0 0 Z " fill="#20B2AA" transform="translate(107,100)"/>
<path d="M0 0 C1.65 0 3.3 0 5 0 C5 0.33 5 0.66 5 1 C3.35 1 1.7 1 0 1 C0 0.67 0 0.34 0 0 Z " fill="#20B2AA" transform="translate(152,20)"/>
<path d="M0 0 C4 1 4 1 4 1 Z " fill="#20B2AA" transform="translate(225,493)"/>
<path d="M0 0 C0.99 0.33 1.98 0.66 3 1 C2.01 1.33 1.02 1.66 0 2 C0 1.34 0 0.68 0 0 Z " fill="#20B2AA" transform="translate(219,491)"/>
<path d="M0 0 C4 1 4 1 4 1 Z " fill="#20B2AA" transform="translate(178,481)"/>
<path d="M0 0 C4 1 4 1 4 1 Z " fill="#20B2AA" transform="translate(168,479)"/>
<path d="M0 0 C0.66 0.33 1.32 0.66 2 1 C1.01 1 0.02 1 -1 1 C-0.67 0.67 -0.34 0.34 0 0 Z " fill="#20B2AA" transform="translate(132,474)"/>
<path d="M0 0 C4 1 4 1 4 1 Z " fill="#20B2AA" transform="translate(264,426)"/>
<path d="M0 0 C0.99 0.33 1.98 0.66 3 1 C2.01 1.33 1.02 1.66 0 2 C0 1.34 0 0.68 0 0 Z " fill="#20B2AA" transform="translate(251,426)"/>
<path d="M0 0 C1 4 1 4 1 4 Z " fill="#20B2AA" transform="translate(54,403)"/>
<path d="M0 0 C1 4 1 4 1 4 Z " fill="#20B2AA" transform="translate(330,374)"/>
<path d="M0 0 C1 4 1 4 1 4 Z " fill="#20B2AA" transform="translate(57,328)"/>
<path d="M0 0 C0 3 0 3 0 3 Z " fill="#20B2AA" transform="translate(279,193)"/>
<path d="M0 0 C0.99 0.33 1.98 0.66 3 1 C2.01 1 1.02 1 0 1 C0 0.67 0 0.34 0 0 Z " fill="#20B2AA" transform="translate(147,182)"/>
<path d="M0 0 C1 4 1 4 1 4 Z " fill="#20B2AA" transform="translate(338,178)"/>
<path d="M0 0 C1 4 1 4 1 4 Z " fill="#20B2AA" transform="translate(338,173)"/>
<path d="M0 0 C1 4 1 4 1 4 Z " fill="#20B2AA" transform="translate(280,169)"/>
<path d="M0 0 C0 3 0 3 0 3 Z " fill="#20B2AA" transform="translate(277,153)"/>
<path d="M0 0 C0.33 0.66 0.66 1.32 1 2 C0.01 1.67 -0.98 1.34 -2 1 C-1.34 0.67 -0.68 0.34 0 0 Z " fill="#20B2AA" transform="translate(203,150)"/>
<path d="M0 0 C1 4 1 4 1 4 Z " fill="#20B2AA" transform="translate(332,127)"/>
<path d="M0 0 C0.99 0.33 1.98 0.66 3 1 C2.01 1 1.02 1 0 1 C0 0.67 0 0.34 0 0 Z " fill="#20B2AA" transform="translate(75,46)"/>
<path d="M0 0 C4 1 4 1 4 1 Z " fill="#20B2AA" transform="translate(90,38)"/>
<path d="M0 0 C4 1 4 1 4 1 Z " fill="#20B2AA" transform="translate(135,23)"/>
<path d="M0 0 C0.66 0 1.32 0 2 0 C1.67 0.99 1.34 1.98 1 3 C0.67 2.01 0.34 1.02 0 0 Z " fill="#20B2AA" transform="translate(128,22)"/>
<path d="M0 0 C4 1 4 1 4 1 Z " fill="#20B2AA" transform="translate(145,21)"/>
<path d="M0 0 C3 1 3 1 3 1 Z " fill="#20B2AA" transform="translate(232,493)"/>
<path d="M0 0 C3 1 3 1 3 1 Z " fill="#20B2AA" transform="translate(199,486)"/>
<path d="M0 0 C3 1 3 1 3 1 Z " fill="#20B2AA" transform="translate(183,482)"/>
<path d="M0 0 C3 1 3 1 3 1 Z " fill="#20B2AA" transform="translate(163,478)"/>
<path d="M0 0 C3 1 3 1 3 1 Z " fill="#20B2AA" transform="translate(157,477)"/>
<path d="M0 0 C3 1 3 1 3 1 Z " fill="#20B2AA" transform="translate(144,475)"/>
<path d="" fill="#20B2AA" transform="translate(0,0)"/>
<path d="M0 0 C3 1 3 1 3 1 Z " fill="#20B2AA" transform="translate(281,427)"/>
<path d="M0 0 C3 1 3 1 3 1 Z " fill="#20B2AA" transform="translate(274,427)"/>
<path d="" fill="#20B2AA" transform="translate(0,0)"/>
<path d="" fill="#20B2AA" transform="translate(0,0)"/>
<path d="M0 0 C0.66 0.66 1.32 1.32 2 2 C1.34 2 0.68 2 0 2 C0 1.34 0 0.68 0 0 Z " fill="#20B2AA" transform="translate(233,265)"/>
<path d="M0 0 C3 1 3 1 3 1 Z " fill="#20B2AA" transform="translate(101,247)"/>
<path d="M0 0 C0.66 0.66 1.32 1.32 2 2 C1.34 2 0.68 2 0 2 C0 1.34 0 0.68 0 0 Z " fill="#20B2AA" transform="translate(168,241)"/>
<path d="M0 0 C0.66 0 1.32 0 2 0 C1.67 0.66 1.34 1.32 1 2 C0.67 1.34 0.34 0.68 0 0 Z " fill="#20B2AA" transform="translate(258,239)"/>
<path d="M0 0 C3 1 3 1 3 1 Z " fill="#20B2AA" transform="translate(179,229)"/>
<path d="" fill="#20B2AA" transform="translate(0,0)"/>
<path d="M0 0 C0.66 0.66 1.32 1.32 2 2 C1.34 2 0.68 2 0 2 C0 1.34 0 0.68 0 0 Z " fill="#20B2AA" transform="translate(333,213)"/>
<path d="M0 0 C0.66 0 1.32 0 2 0 C1.67 0.66 1.34 1.32 1 2 C0.67 1.34 0.34 0.68 0 0 Z " fill="#20B2AA" transform="translate(162,198)"/>
<path d="" fill="#20B2AA" transform="translate(0,0)"/>
<path d="M0 0 C0.66 0.66 1.32 1.32 2 2 C1.34 2 0.68 2 0 2 C0 1.34 0 0.68 0 0 Z " fill="#20B2AA" transform="translate(113,176)"/>
<path d="" fill="#20B2AA" transform="translate(0,0)"/>
<path d="M0 0 C3 1 3 1 3 1 Z " fill="#20B2AA" transform="translate(273,146)"/>
<path d="" fill="#20B2AA" transform="translate(0,0)"/>
<path d="M0 0 C0.66 0 1.32 0 2 0 C1.67 0.66 1.34 1.32 1 2 C0.67 1.34 0.34 0.68 0 0 Z " fill="#20B2AA" transform="translate(247,134)"/>
<path d="" fill="#20B2AA" transform="translate(0,0)"/>
<path d="" fill="#20B2AA" transform="translate(0,0)"/>
<path d="M0 0 C0.33 0.66 0.66 1.32 1 2 C0.34 1.67 -0.32 1.34 -1 1 C-0.67 0.67 -0.34 0.34 0 0 Z " fill="#20B2AA" transform="translate(315,89)"/>
<path d="M0 0 C3 1 3 1 3 1 Z " fill="#20B2AA" transform="translate(293,42)"/>
<path d="M0 0 C3 1 3 1 3 1 Z " fill="#20B2AA" transform="translate(207,22)"/>
<path d="M0 0 C2 1 2 1 2 1 Z " fill="#20B2AA" transform="translate(212,489)"/>
<path d="M0 0 C2 1 2 1 2 1 Z " fill="#20B2AA" transform="translate(189,483)"/>
<path d="M0 0 C2 1 2 1 2 1 Z " fill="#20B2AA" transform="translate(151,476)"/>
<path d="M0 0 C2 1 2 1 2 1 Z " fill="#20B2AA" transform="translate(141,475)"/>
<path d="" fill="#20B2AA" transform="translate(0,0)"/>
<path d="M0 0 C2 1 2 1 2 1 Z " fill="#20B2AA" transform="translate(98,472)"/>
<path d="" fill="#20B2AA" transform="translate(0,0)"/>
<path d="" fill="#20B2AA" transform="translate(0,0)"/>
<path d="M0 0 C2 1 2 1 2 1 Z " fill="#20B2AA" transform="translate(254,461)"/>
<path d="" fill="#20B2AA" transform="translate(0,0)"/>
<path d="" fill="#20B2AA" transform="translate(0,0)"/>
<path d="" fill="#20B2AA" transform="translate(0,0)"/>
<path d="" fill="#20B2AA" transform="translate(0,0)"/>
<path d="" fill="#20B2AA" transform="translate(0,0)"/>
<path d="M0 0 C2 1 2 1 2 1 Z " fill="#20B2AA" transform="translate(295,427)"/>
<path d="M0 0 C2 1 2 1 2 1 Z " fill="#20B2AA" transform="translate(310,425)"/>
<path d="" fill="#20B2AA" transform="translate(0,0)"/>
<path d="" fill="#20B2AA" transform="translate(0,0)"/>
<path d="" fill="#20B2AA" transform="translate(0,0)"/>
<path d="" fill="#20B2AA" transform="translate(0,0)"/>
<path d="M0 0 C2 1 2 1 2 1 Z " fill="#20B2AA" transform="translate(6,333)"/>
<path d="" fill="#20B2AA" transform="translate(0,0)"/>
<path d="M0 0 C2 1 2 1 2 1 Z " fill="#20B2AA" transform="translate(343,322)"/>
<path d="M0 0 C2 1 2 1 2 1 Z " fill="#20B2AA" transform="translate(339,317)"/>
<path d="" fill="#20B2AA" transform="translate(0,0)"/>
<path d="M0 0 C2 1 2 1 2 1 Z " fill="#20B2AA" transform="translate(49,306)"/>
<path d="M0 0 C2 1 2 1 2 1 Z " fill="#20B2AA" transform="translate(351,304)"/>
<path d="M0 0 C2 1 2 1 2 1 Z " fill="#20B2AA" transform="translate(358,303)"/>
<path d="" fill="#20B2AA" transform="translate(0,0)"/>
<path d="M0 0 C2 1 2 1 2 1 Z " fill="#20B2AA" transform="translate(7,294)"/>
<path d="" fill="#20B2AA" transform="translate(0,0)"/>
<path d="" fill="#20B2AA" transform="translate(0,0)"/>
<path d="M0 0 C2 1 2 1 2 1 Z " fill="#20B2AA" transform="translate(152,281)"/>
<path d="M0 0 C2 1 2 1 2 1 Z " fill="#20B2AA" transform="translate(142,278)"/>
<path d="M0 0 C2 1 2 1 2 1 Z " fill="#20B2AA" transform="translate(135,275)"/>
<path d="M0 0 C2 1 2 1 2 1 Z " fill="#20B2AA" transform="translate(125,270)"/>
<path d="M0 0 C2 1 2 1 2 1 Z " fill="#20B2AA" transform="translate(235,265)"/>
<path d="M0 0 C2 1 2 1 2 1 Z " fill="#20B2AA" transform="translate(113,262)"/>
<path d="" fill="#20B2AA" transform="translate(0,0)"/>
<path d="M0 0 C2 1 2 1 2 1 Z " fill="#20B2AA" transform="translate(24,256)"/>
<path d="M0 0 C2 1 2 1 2 1 Z " fill="#20B2AA" transform="translate(165,242)"/>
<path d="" fill="#20B2AA" transform="translate(0,0)"/>
<path d="" fill="#20B2AA" transform="translate(0,0)"/>
<path d="" fill="#20B2AA" transform="translate(0,0)"/>
<path d="" fill="#20B2AA" transform="translate(0,0)"/>
<path d="M0 0 C2 1 2 1 2 1 Z " fill="#20B2AA" transform="translate(343,226)"/>
<path d="M0 0 C2 1 2 1 2 1 Z " fill="#20B2AA" transform="translate(83,224)"/>
<path d="M0 0 C2 1 2 1 2 1 Z " fill="#20B2AA" transform="translate(189,221)"/>
<path d="" fill="#20B2AA" transform="translate(0,0)"/>
<path d="" fill="#20B2AA" transform="translate(0,0)"/>
<path d="" fill="#20B2AA" transform="translate(0,0)"/>
<path d="M0 0 C2 1 2 1 2 1 Z " fill="#20B2AA" transform="translate(197,212)"/>
<path d="" fill="#20B2AA" transform="translate(0,0)"/>
<path d="" fill="#20B2AA" transform="translate(0,0)"/>
<path d="" fill="#20B2AA" transform="translate(0,0)"/>
<path d="" fill="#20B2AA" transform="translate(0,0)"/>
<path d="" fill="#20B2AA" transform="translate(0,0)"/>
<path d="" fill="#20B2AA" transform="translate(0,0)"/>
<path d="" fill="#20B2AA" transform="translate(0,0)"/>
<path d="" fill="#20B2AA" transform="translate(0,0)"/>
<path d="" fill="#20B2AA" transform="translate(0,0)"/>
<path d="M0 0 C2 1 2 1 2 1 Z " fill="#20B2AA" transform="translate(109,180)"/>
<path d="" fill="#20B2AA" transform="translate(0,0)"/>
<path d="" fill="#20B2AA" transform="translate(0,0)"/>
<path d="" fill="#20B2AA" transform="translate(0,0)"/>
<path d="" fill="#20B2AA" transform="translate(0,0)"/>
<path d="" fill="#20B2AA" transform="translate(0,0)"/>
<path d="M0 0 C2 1 2 1 2 1 Z " fill="#20B2AA" transform="translate(239,161)"/>
<path d="M0 0 C2 1 2 1 2 1 Z " fill="#20B2AA" transform="translate(247,156)"/>
<path d="M0 0 C2 1 2 1 2 1 Z " fill="#20B2AA" transform="translate(245,155)"/>
<path d="" fill="#20B2AA" transform="translate(0,0)"/>
<path d="" fill="#20B2AA" transform="translate(0,0)"/>
<path d="" fill="#20B2AA" transform="translate(0,0)"/>
<path d="" fill="#20B2AA" transform="translate(0,0)"/>
<path d="" fill="#20B2AA" transform="translate(0,0)"/>
<path d="" fill="#20B2AA" transform="translate(0,0)"/>
<path d="" fill="#20B2AA" transform="translate(0,0)"/>
<path d="M0 0 C2 1 2 1 2 1 Z " fill="#20B2AA" transform="translate(333,133)"/>
<path d="" fill="#20B2AA" transform="translate(0,0)"/>
<path d="M0 0 C2 1 2 1 2 1 Z " fill="#20B2AA" transform="translate(235,126)"/>
<path d="M0 0 C2 1 2 1 2 1 Z " fill="#20B2AA" transform="translate(327,117)"/>
<path d="M0 0 C2 1 2 1 2 1 Z " fill="#20B2AA" transform="translate(93,117)"/>
<path d="" fill="#20B2AA" transform="translate(0,0)"/>
<path d="" fill="#20B2AA" transform="translate(0,0)"/>
<path d="" fill="#20B2AA" transform="translate(0,0)"/>
<path d="M0 0 C2 1 2 1 2 1 Z " fill="#20B2AA" transform="translate(147,113)"/>
<path d="" fill="#20B2AA" transform="translate(0,0)"/>
<path d="M0 0 C2 1 2 1 2 1 Z " fill="#20B2AA" transform="translate(235,94)"/>
<path d="M0 0 C2 1 2 1 2 1 Z " fill="#20B2AA" transform="translate(315,93)"/>
<path d="M0 0 C2 1 2 1 2 1 Z " fill="#20B2AA" transform="translate(226,93)"/>
<path d="M0 0 C2 1 2 1 2 1 Z " fill="#20B2AA" transform="translate(219,84)"/>
<path d="M0 0 C2 1 2 1 2 1 Z " fill="#20B2AA" transform="translate(7,84)"/>
<path d="M0 0 C2 1 2 1 2 1 Z " fill="#20B2AA" transform="translate(43,79)"/>
<path d="M0 0 C2 1 2 1 2 1 Z " fill="#20B2AA" transform="translate(152,77)"/>
<path d="" fill="#20B2AA" transform="translate(0,0)"/>
<path d="" fill="#20B2AA" transform="translate(0,0)"/>
<path d="" fill="#20B2AA" transform="translate(0,0)"/>
<path d="M0 0 C2 1 2 1 2 1 Z " fill="#20B2AA" transform="translate(67,54)"/>
<path d="M0 0 C2 1 2 1 2 1 Z " fill="#20B2AA" transform="translate(368,53)"/>
<path d="" fill="#20B2AA" transform="translate(0,0)"/>
<path d="M0 0 C2 1 2 1 2 1 Z " fill="#20B2AA" transform="translate(91,40)"/>
<path d="" fill="#20B2AA" transform="translate(0,0)"/>
<path d="M0 0 C2 1 2 1 2 1 Z " fill="#20B2AA" transform="translate(242,33)"/>
<path d="M0 0 C2 1 2 1 2 1 Z " fill="#20B2AA" transform="translate(110,31)"/>
<path d="M0 0 C2 1 2 1 2 1 Z " fill="#20B2AA" transform="translate(112,30)"/>
<path d="M0 0 C2 1 2 1 2 1 Z " fill="#20B2AA" transform="translate(114,29)"/>
<path d="" fill="#20B2AA" transform="translate(0,0)"/>
<path d="M0 0 C2 1 2 1 2 1 Z " fill="#20B2AA" transform="translate(229,28)"/>
<path d="M0 0 C2 1 2 1 2 1 Z " fill="#20B2AA" transform="translate(226,27)"/>
<path d="M0 0 C2 1 2 1 2 1 Z " fill="#20B2AA" transform="translate(120,27)"/>
<path d="M0 0 C2 1 2 1 2 1 Z " fill="#20B2AA" transform="translate(14,27)"/>
<path d="M0 0 C2 1 2 1 2 1 Z " fill="#20B2AA" transform="translate(223,26)"/>
<path d="M0 0 C2 1 2 1 2 1 Z " fill="#20B2AA" transform="translate(123,26)"/>
<path d="M0 0 C2 1 2 1 2 1 Z " fill="#20B2AA" transform="translate(225,25)"/>
<path d="M0 0 C2 1 2 1 2 1 Z " fill="#20B2AA" transform="translate(131,24)"/>
<path d="M0 0 C2 1 2 1 2 1 Z " fill="#20B2AA" transform="translate(227,23)"/>
<path d="M0 0 C2 1 2 1 2 1 Z " fill="#20B2AA" transform="translate(213,22)"/>
<path d="M0 0 C2 1 2 1 2 1 Z " fill="#20B2AA" transform="translate(140,22)"/>
<path d="M0 0 C2 1 2 1 2 1 Z " fill="#20B2AA" transform="translate(165,19)"/>
<path d="M0 0 C2 1 2 1 2 1 Z " fill="#20B2AA" transform="translate(160,19)"/>
<path d="" fill="#20B2AA" transform="translate(0,0)"/>
<path d="M0 0 C2 1 2 1 2 1 Z " fill="#20B2AA" transform="translate(45,10)"/>
<path d="" fill="#20B2AA" transform="translate(0,0)"/>
<path d="" fill="#20B2AA" transform="translate(0,0)"/>
<path d="" fill="#20B2AA" transform="translate(0,0)"/>
<path d="" fill="#20B2AA" transform="translate(0,0)"/>
<path d="" fill="#20B2AA" transform="translate(0,0)"/>
<path d="" fill="#20B2AA" transform="translate(0,0)"/>
<path d="" fill="#20B2AA" transform="translate(0,0)"/>
<path d="" fill="#20B2AA" transform="translate(0,0)"/>
<path d="" fill="#20B2AA" transform="translate(0,0)"/>
<path d="" fill="#20B2AA" transform="translate(0,0)"/>
<path d="" fill="#20B2AA" transform="translate(0,0)"/>
<path d="" fill="#20B2AA" transform="translate(0,0)"/>
<path d="" fill="#20B2AA" transform="translate(0,0)"/>
<path d="" fill="#20B2AA" transform="translate(0,0)"/>
<path d="" fill="#20B2AA" transform="translate(0,0)"/>
<path d="" fill="#20B2AA" transform="translate(0,0)"/>
<path d="" fill="#20B2AA" transform="translate(0,0)"/>
<path d="" fill="#20B2AA" transform="translate(0,0)"/>
<path d="" fill="#20B2AA" transform="translate(0,0)"/>
<path d="" fill="#20B2AA" transform="translate(0,0)"/>
<path d="" fill="#20B2AA" transform="translate(0,0)"/>
<path d="" fill="#20B2AA" transform="translate(0,0)"/>
<path d="" fill="#20B2AA" transform="translate(0,0)"/>
<path d="" fill="#20B2AA" transform="translate(0,0)"/>
<path d="" fill="#20B2AA" transform="translate(0,0)"/>
<path d="" fill="#20B2AA" transform="translate(0,0)"/>
<path d="" fill="#20B2AA" transform="translate(0,0)"/>
<path d="" fill="#20B2AA" transform="translate(0,0)"/>
<path d="" fill="#20B2AA" transform="translate(0,0)"/>
<path d="" fill="#20B2AA" transform="translate(0,0)"/>
<path d="" fill="#20B2AA" transform="translate(0,0)"/>
<path d="" fill="#20B2AA" transform="translate(0,0)"/>
<path d="" fill="#20B2AA" transform="translate(0,0)"/>
<path d="" fill="#20B2AA" transform="translate(0,0)"/>
<path d="" fill="#20B2AA" transform="translate(0,0)"/>
<path d="" fill="#20B2AA" transform="translate(0,0)"/>
<path d="" fill="#20B2AA" transform="translate(0,0)"/>
<path d="" fill="#20B2AA" transform="translate(0,0)"/>
<path d="" fill="#20B2AA" transform="translate(0,0)"/>
<path d="" fill="#20B2AA" transform="translate(0,0)"/>
<path d="" fill="#20B2AA" transform="translate(0,0)"/>
<path d="" fill="#20B2AA" transform="translate(0,0)"/>
<path d="" fill="#20B2AA" transform="translate(0,0)"/>
<path d="" fill="#20B2AA" transform="translate(0,0)"/>
<path d="" fill="#20B2AA" transform="translate(0,0)"/>
<path d="" fill="#20B2AA" transform="translate(0,0)"/>
<path d="" fill="#20B2AA" transform="translate(0,0)"/>
<path d="" fill="#20B2AA" transform="translate(0,0)"/>
<path d="" fill="#20B2AA" transform="translate(0,0)"/>
<path d="" fill="#20B2AA" transform="translate(0,0)"/>
<path d="" fill="#20B2AA" transform="translate(0,0)"/>
<path d="" fill="#20B2AA" transform="translate(0,0)"/>
<path d="" fill="#20B2AA" transform="translate(0,0)"/>
<path d="" fill="#20B2AA" transform="translate(0,0)"/>
<path d="" fill="#20B2AA" transform="translate(0,0)"/>
<path d="" fill="#20B2AA" transform="translate(0,0)"/>
<path d="" fill="#20B2AA" transform="translate(0,0)"/>
<path d="" fill="#20B2AA" transform="translate(0,0)"/>
<path d="" fill="#20B2AA" transform="translate(0,0)"/>
<path d="" fill="#20B2AA" transform="translate(0,0)"/>
<path d="" fill="#20B2AA" transform="translate(0,0)"/>
<path d="" fill="#20B2AA" transform="translate(0,0)"/>
<path d="" fill="#20B2AA" transform="translate(0,0)"/>
<path d="" fill="#20B2AA" transform="translate(0,0)"/>
<path d="" fill="#20B2AA" transform="translate(0,0)"/>
<path d="" fill="#20B2AA" transform="translate(0,0)"/>
<path d="" fill="#20B2AA" transform="translate(0,0)"/>
<path d="" fill="#20B2AA" transform="translate(0,0)"/>
<path d="" fill="#20B2AA" transform="translate(0,0)"/>
<path d="" fill="#20B2AA" transform="translate(0,0)"/>
<path d="" fill="#20B2AA" transform="translate(0,0)"/>
<path d="" fill="#20B2AA" transform="translate(0,0)"/>
<path d="" fill="#20B2AA" transform="translate(0,0)"/>
<path d="" fill="#20B2AA" transform="translate(0,0)"/>
<path d="" fill="#20B2AA" transform="translate(0,0)"/>
<path d="" fill="#20B2AA" transform="translate(0,0)"/>
<path d="" fill="#20B2AA" transform="translate(0,0)"/>
<path d="" fill="#20B2AA" transform="translate(0,0)"/>
<path d="" fill="#20B2AA" transform="translate(0,0)"/>
<path d="" fill="#20B2AA" transform="translate(0,0)"/>
<path d="" fill="#20B2AA" transform="translate(0,0)"/>
<path d="" fill="#20B2AA" transform="translate(0,0)"/>
<path d="" fill="#20B2AA" transform="translate(0,0)"/>
<path d="" fill="#20B2AA" transform="translate(0,0)"/>
<path d="" fill="#20B2AA" transform="translate(0,0)"/>
<path d="" fill="#20B2AA" transform="translate(0,0)"/>
<path d="" fill="#20B2AA" transform="translate(0,0)"/>
<path d="" fill="#20B2AA" transform="translate(0,0)"/>
<path d="" fill="#20B2AA" transform="translate(0,0)"/>
<path d="" fill="#20B2AA" transform="translate(0,0)"/>
<path d="" fill="#20B2AA" transform="translate(0,0)"/>
<path d="" fill="#20B2AA" transform="translate(0,0)"/>
<path d="" fill="#20B2AA" transform="translate(0,0)"/>
<path d="" fill="#20B2AA" transform="translate(0,0)"/>
<path d="" fill="#20B2AA" transform="translate(0,0)"/>
<path d="" fill="#20B2AA" transform="translate(0,0)"/>
<path d="" fill="#20B2AA" transform="translate(0,0)"/>
<path d="" fill="#20B2AA" transform="translate(0,0)"/>
<path d="" fill="#20B2AA" transform="translate(0,0)"/>
<path d="" fill="#20B2AA" transform="translate(0,0)"/>
<path d="" fill="#20B2AA" transform="translate(0,0)"/>
<path d="" fill="#20B2AA" transform="translate(0,0)"/>
<path d="" fill="#20B2AA" transform="translate(0,0)"/>
<path d="" fill="#20B2AA" transform="translate(0,0)"/>
<path d="" fill="#20B2AA" transform="translate(0,0)"/>
<path d="" fill="#20B2AA" transform="translate(0,0)"/>
<path d="" fill="#20B2AA" transform="translate(0,0)"/>
<path d="" fill="#20B2AA" transform="translate(0,0)"/>
<path d="" fill="#20B2AA" transform="translate(0,0)"/>
<path d="" fill="#20B2AA" transform="translate(0,0)"/>
<path d="" fill="#20B2AA" transform="translate(0,0)"/>
<path d="" fill="#20B2AA" transform="translate(0,0)"/>
<path d="" fill="#20B2AA" transform="translate(0,0)"/>
<path d="" fill="#20B2AA" transform="translate(0,0)"/>
<path d="" fill="#20B2AA" transform="translate(0,0)"/>
<path d="" fill="#20B2AA" transform="translate(0,0)"/>
<path d="" fill="#20B2AA" transform="translate(0,0)"/>
<path d="" fill="#20B2AA" transform="translate(0,0)"/>
<path d="" fill="#20B2AA" transform="translate(0,0)"/>
<path d="" fill="#20B2AA" transform="translate(0,0)"/>
<path d="" fill="#20B2AA" transform="translate(0,0)"/>
<path d="" fill="#20B2AA" transform="translate(0,0)"/>
<path d="" fill="#20B2AA" transform="translate(0,0)"/>
<path d="" fill="#20B2AA" transform="translate(0,0)"/>
<path d="" fill="#20B2AA" transform="translate(0,0)"/>
<path d="" fill="#20B2AA" transform="translate(0,0)"/>
<path d="" fill="#20B2AA" transform="translate(0,0)"/>
<path d="" fill="#20B2AA" transform="translate(0,0)"/>
<path d="" fill="#20B2AA" transform="translate(0,0)"/>
<path d="" fill="#20B2AA" transform="translate(0,0)"/>
<path d="" fill="#20B2AA" transform="translate(0,0)"/>
<path d="" fill="#20B2AA" transform="translate(0,0)"/>
<path d="" fill="#20B2AA" transform="translate(0,0)"/>
<path d="" fill="#20B2AA" transform="translate(0,0)"/>
<path d="" fill="#20B2AA" transform="translate(0,0)"/>
<path d="" fill="#20B2AA" transform="translate(0,0)"/>
<path d="" fill="#20B2AA" transform="translate(0,0)"/>
<path d="" fill="#20B2AA" transform="translate(0,0)"/>
<path d="" fill="#20B2AA" transform="translate(0,0)"/>
<path d="" fill="#20B2AA" transform="translate(0,0)"/>
<path d="" fill="#20B2AA" transform="translate(0,0)"/>
<path d="" fill="#20B2AA" transform="translate(0,0)"/>
<path d="" fill="#20B2AA" transform="translate(0,0)"/>
<path d="" fill="#20B2AA" transform="translate(0,0)"/>
<path d="" fill="#20B2AA" transform="translate(0,0)"/>
<path d="" fill="#20B2AA" transform="translate(0,0)"/>
<path d="" fill="#20B2AA" transform="translate(0,0)"/>
<path d="" fill="#20B2AA" transform="translate(0,0)"/>
<path d="" fill="#20B2AA" transform="translate(0,0)"/>
<path d="" fill="#20B2AA" transform="translate(0,0)"/>
<path d="" fill="#20B2AA" transform="translate(0,0)"/>
<path d="" fill="#20B2AA" transform="translate(0,0)"/>
<path d="" fill="#20B2AA" transform="translate(0,0)"/>
<path d="" fill="#20B2AA" transform="translate(0,0)"/>
<path d="" fill="#20B2AA" transform="translate(0,0)"/>
<path d="" fill="#20B2AA" transform="translate(0,0)"/>
<path d="" fill="#20B2AA" transform="translate(0,0)"/>
<path d="" fill="#20B2AA" transform="translate(0,0)"/>
<path d="" fill="#20B2AA" transform="translate(0,0)"/>
<path d="" fill="#20B2AA" transform="translate(0,0)"/>
<path d="" fill="#20B2AA" transform="translate(0,0)"/>
<path d="" fill="#20B2AA" transform="translate(0,0)"/>
<path d="" fill="#20B2AA" transform="translate(0,0)"/>
<path d="" fill="#20B2AA" transform="translate(0,0)"/>
<path d="" fill="#20B2AA" transform="translate(0,0)"/>
<path d="" fill="#20B2AA" transform="translate(0,0)"/>
<path d="" fill="#20B2AA" transform="translate(0,0)"/>
<path d="" fill="#20B2AA" transform="translate(0,0)"/>
<path d="" fill="#20B2AA" transform="translate(0,0)"/>
<path d="" fill="#20B2AA" transform="translate(0,0)"/>
<path d="" fill="#20B2AA" transform="translate(0,0)"/>
<path d="" fill="#20B2AA" transform="translate(0,0)"/>
<path d="" fill="#20B2AA" transform="translate(0,0)"/>
<path d="" fill="#20B2AA" transform="translate(0,0)"/>
<path d="" fill="#20B2AA" transform="translate(0,0)"/>
<path d="" fill="#20B2AA" transform="translate(0,0)"/>
<path d="" fill="#20B2AA" transform="translate(0,0)"/>
<path d="" fill="#20B2AA" transform="translate(0,0)"/>
<path d="" fill="#20B2AA" transform="translate(0,0)"/>
<path d="" fill="#20B2AA" transform="translate(0,0)"/>
<path d="" fill="#20B2AA" transform="translate(0,0)"/>
<path d="" fill="#20B2AA" transform="translate(0,0)"/>
<path d="" fill="#20B2AA" transform="translate(0,0)"/>
<path d="" fill="#20B2AA" transform="translate(0,0)"/>
<path d="" fill="#20B2AA" transform="translate(0,0)"/>
<path d="" fill="#20B2AA" transform="translate(0,0)"/>
<path d="" fill="#20B2AA" transform="translate(0,0)"/>
<path d="" fill="#20B2AA" transform="translate(0,0)"/>
<path d="" fill="#20B2AA" transform="translate(0,0)"/>
<path d="" fill="#20B2AA" transform="translate(0,0)"/>
<path d="" fill="#20B2AA" transform="translate(0,0)"/>
<path d="" fill="#20B2AA" transform="translate(0,0)"/>
<path d="" fill="#20B2AA" transform="translate(0,0)"/>
<path d="" fill="#20B2AA" transform="translate(0,0)"/>
<path d="" fill="#20B2AA" transform="translate(0,0)"/>
<path d="" fill="#20B2AA" transform="translate(0,0)"/>
<path d="" fill="#20B2AA" transform="translate(0,0)"/>
<path d="" fill="#20B2AA" transform="translate(0,0)"/>
<path d="" fill="#20B2AA" transform="translate(0,0)"/>
<path d="" fill="#20B2AA" transform="translate(0,0)"/>
<path d="" fill="#20B2AA" transform="translate(0,0)"/>
<path d="" fill="#20B2AA" transform="translate(0,0)"/>
<path d="" fill="#20B2AA" transform="translate(0,0)"/>
<path d="" fill="#20B2AA" transform="translate(0,0)"/>
<path d="" fill="#20B2AA" transform="translate(0,0)"/>
<path d="" fill="#20B2AA" transform="translate(0,0)"/>
<path d="" fill="#20B2AA" transform="translate(0,0)"/>
<path d="" fill="#20B2AA" transform="translate(0,0)"/>
<path d="" fill="#20B2AA" transform="translate(0,0)"/>
<path d="" fill="#20B2AA" transform="translate(0,0)"/>
<path d="" fill="#20B2AA" transform="translate(0,0)"/>
<path d="" fill="#20B2AA" transform="translate(0,0)"/>
<path d="" fill="#20B2AA" transform="translate(0,0)"/>
<path d="" fill="#20B2AA" transform="translate(0,0)"/>
<path d="" fill="#20B2AA" transform="translate(0,0)"/>
<path d="" fill="#20B2AA" transform="translate(0,0)"/>
<path d="" fill="#20B2AA" transform="translate(0,0)"/>
<path d="" fill="#20B2AA" transform="translate(0,0)"/>
<path d="" fill="#20B2AA" transform="translate(0,0)"/>
<path d="" fill="#20B2AA" transform="translate(0,0)"/>
<path d="" fill="#20B2AA" transform="translate(0,0)"/>
<path d="" fill="#20B2AA" transform="translate(0,0)"/>
<path d="" fill="#20B2AA" transform="translate(0,0)"/>
<path d="" fill="#20B2AA" transform="translate(0,0)"/>
<path d="" fill="#20B2AA" transform="translate(0,0)"/>
<path d="" fill="#20B2AA" transform="translate(0,0)"/>
<path d="" fill="#20B2AA" transform="translate(0,0)"/>
<path d="" fill="#20B2AA" transform="translate(0,0)"/>
<path d="" fill="#20B2AA" transform="translate(0,0)"/>
<path d="" fill="#20B2AA" transform="translate(0,0)"/>
<path d="" fill="#20B2AA" transform="translate(0,0)"/>
<path d="" fill="#20B2AA" transform="translate(0,0)"/>
<path d="" fill="#20B2AA" transform="translate(0,0)"/>
<path d="" fill="#20B2AA" transform="translate(0,0)"/>
<path d="" fill="#20B2AA" transform="translate(0,0)"/>
<path d="" fill="#20B2AA" transform="translate(0,0)"/>
<path d="" fill="#20B2AA" transform="translate(0,0)"/>
<path d="" fill="#20B2AA" transform="translate(0,0)"/>
<path d="" fill="#20B2AA" transform="translate(0,0)"/>
<path d="" fill="#20B2AA" transform="translate(0,0)"/>
<path d="" fill="#20B2AA" transform="translate(0,0)"/>
<path d="" fill="#20B2AA" transform="translate(0,0)"/>
<path d="" fill="#20B2AA" transform="translate(0,0)"/>
<path d="" fill="#20B2AA" transform="translate(0,0)"/>
<path d="" fill="#20B2AA" transform="translate(0,0)"/>
<path d="" fill="#20B2AA" transform="translate(0,0)"/>
<path d="" fill="#20B2AA" transform="translate(0,0)"/>
<path d="" fill="#20B2AA" transform="translate(0,0)"/>
<path d="" fill="#20B2AA" transform="translate(0,0)"/>
<path d="" fill="#20B2AA" transform="translate(0,0)"/>
<path d="" fill="#20B2AA" transform="translate(0,0)"/>
<path d="" fill="#20B2AA" transform="translate(0,0)"/>
<path d="" fill="#20B2AA" transform="translate(0,0)"/>
<path d="" fill="#20B2AA" transform="translate(0,0)"/>
<path d="" fill="#20B2AA" transform="translate(0,0)"/>
<path d="" fill="#20B2AA" transform="translate(0,0)"/>
<path d="" fill="#20B2AA" transform="translate(0,0)"/>
<path d="" fill="#20B2AA" transform="translate(0,0)"/>
<path d="" fill="#20B2AA" transform="translate(0,0)"/>
<path d="" fill="#20B2AA" transform="translate(0,0)"/>
<path d="" fill="#20B2AA" transform="translate(0,0)"/>
<path d="" fill="#20B2AA" transform="translate(0,0)"/>
<path d="" fill="#20B2AA" transform="translate(0,0)"/>
<path d="" fill="#20B2AA" transform="translate(0,0)"/>
<path d="" fill="#20B2AA" transform="translate(0,0)"/>
<path d="" fill="#20B2AA" transform="translate(0,0)"/>
<path d="" fill="#20B2AA" transform="translate(0,0)"/>
<path d="" fill="#20B2AA" transform="translate(0,0)"/>
<path d="" fill="#20B2AA" transform="translate(0,0)"/>
<path d="" fill="#20B2AA" transform="translate(0,0)"/>
<path d="" fill="#20B2AA" transform="translate(0,0)"/>
<path d="" fill="#20B2AA" transform="translate(0,0)"/>
<path d="" fill="#20B2AA" transform="translate(0,0)"/>
<path d="" fill="#20B2AA" transform="translate(0,0)"/>
<path d="" fill="#20B2AA" transform="translate(0,0)"/>
<path d="" fill="#20B2AA" transform="translate(0,0)"/>
<path d="" fill="#20B2AA" transform="translate(0,0)"/>
<path d="" fill="#20B2AA" transform="translate(0,0)"/>
<path d="" fill="#20B2AA" transform="translate(0,0)"/>
<path d="" fill="#20B2AA" transform="translate(0,0)"/>
<path d="" fill="#20B2AA" transform="translate(0,0)"/>
<path d="" fill="#20B2AA" transform="translate(0,0)"/>
<path d="" fill="#20B2AA" transform="translate(0,0)"/>
<path d="" fill="#20B2AA" transform="translate(0,0)"/>
<path d="" fill="#20B2AA" transform="translate(0,0)"/>
<path d="" fill="#20B2AA" transform="translate(0,0)"/>
<path d="" fill="#20B2AA" transform="translate(0,0)"/>
<path d="" fill="#20B2AA" transform="translate(0,0)"/>
<path d="" fill="#20B2AA" transform="translate(0,0)"/>
<path d="" fill="#20B2AA" transform="translate(0,0)"/>
<path d="" fill="#20B2AA" transform="translate(0,0)"/>
<path d="" fill="#20B2AA" transform="translate(0,0)"/>
<path d="" fill="#20B2AA" transform="translate(0,0)"/>
<path d="" fill="#20B2AA" transform="translate(0,0)"/>
<path d="" fill="#20B2AA" transform="translate(0,0)"/>
<path d="" fill="#20B2AA" transform="translate(0,0)"/>
<path d="" fill="#20B2AA" transform="translate(0,0)"/>
<path d="" fill="#20B2AA" transform="translate(0,0)"/>
<path d="" fill="#20B2AA" transform="translate(0,0)"/>
<path d="" fill="#20B2AA" transform="translate(0,0)"/>
<path d="" fill="#20B2AA" transform="translate(0,0)"/>
<path d="" fill="#20B2AA" transform="translate(0,0)"/>
<path d="" fill="#20B2AA" transform="translate(0,0)"/>
<path d="" fill="#20B2AA" transform="translate(0,0)"/>
<path d="" fill="#20B2AA" transform="translate(0,0)"/>
<path d="" fill="#20B2AA" transform="translate(0,0)"/>
<path d="" fill="#20B2AA" transform="translate(0,0)"/>
<path d="" fill="#20B2AA" transform="translate(0,0)"/>
<path d="" fill="#20B2AA" transform="translate(0,0)"/>
<path d="" fill="#20B2AA" transform="translate(0,0)"/>
<path d="" fill="#20B2AA" transform="translate(0,0)"/>
<path d="" fill="#20B2AA" transform="translate(0,0)"/>
<path d="" fill="#20B2AA" transform="translate(0,0)"/>
<path d="" fill="#20B2AA" transform="translate(0,0)"/>
<path d="" fill="#20B2AA" transform="translate(0,0)"/>
<path d="" fill="#20B2AA" transform="translate(0,0)"/>
<path d="" fill="#20B2AA" transform="translate(0,0)"/>
<path d="" fill="#20B2AA" transform="translate(0,0)"/>
<path d="" fill="#20B2AA" transform="translate(0,0)"/>
<path d="" fill="#20B2AA" transform="translate(0,0)"/>
<path d="" fill="#20B2AA" transform="translate(0,0)"/>
<path d="" fill="#20B2AA" transform="translate(0,0)"/>
<path d="" fill="#20B2AA" transform="translate(0,0)"/>
<path d="" fill="#20B2AA" transform="translate(0,0)"/>
<path d="" fill="#20B2AA" transform="translate(0,0)"/>
<path d="" fill="#20B2AA" transform="translate(0,0)"/>
<path d="" fill="#20B2AA" transform="translate(0,0)"/>
<path d="" fill="#20B2AA" transform="translate(0,0)"/>
<path d="" fill="#20B2AA" transform="translate(0,0)"/>
<path d="" fill="#20B2AA" transform="translate(0,0)"/>
<path d="" fill="#20B2AA" transform="translate(0,0)"/>
<path d="" fill="#20B2AA" transform="translate(0,0)"/>
<path d="" fill="#20B2AA" transform="translate(0,0)"/>
<path d="" fill="#20B2AA" transform="translate(0,0)"/>
<path d="" fill="#20B2AA" transform="translate(0,0)"/>
<path d="" fill="#20B2AA" transform="translate(0,0)"/>
<path d="" fill="#20B2AA" transform="translate(0,0)"/>
<path d="" fill="#20B2AA" transform="translate(0,0)"/>
<path d="" fill="#20B2AA" transform="translate(0,0)"/>
<path d="" fill="#20B2AA" transform="translate(0,0)"/>
<path d="" fill="#20B2AA" transform="translate(0,0)"/>
<path d="" fill="#20B2AA" transform="translate(0,0)"/>
<path d="" fill="#20B2AA" transform="translate(0,0)"/>
<path d="" fill="#20B2AA" transform="translate(0,0)"/>
<path d="" fill="#20B2AA" transform="translate(0,0)"/>
<path d="" fill="#20B2AA" transform="translate(0,0)"/>
<path d="" fill="#20B2AA" transform="translate(0,0)"/>
<path d="" fill="#20B2AA" transform="translate(0,0)"/>
<path d="" fill="#20B2AA" transform="translate(0,0)"/>
<path d="" fill="#20B2AA" transform="translate(0,0)"/>
<path d="" fill="#20B2AA" transform="translate(0,0)"/>
<path d="" fill="#20B2AA" transform="translate(0,0)"/>
<path d="" fill="#20B2AA" transform="translate(0,0)"/>
<path d="" fill="#20B2AA" transform="translate(0,0)"/>
<path d="" fill="#20B2AA" transform="translate(0,0)"/>
<path d="" fill="#20B2AA" transform="translate(0,0)"/>
<path d="" fill="#20B2AA" transform="translate(0,0)"/>
<path d="" fill="#20B2AA" transform="translate(0,0)"/>
<path d="" fill="#20B2AA" transform="translate(0,0)"/>
<path d="" fill="#20B2AA" transform="translate(0,0)"/>
<path d="" fill="#20B2AA" transform="translate(0,0)"/>
<path d="" fill="#20B2AA" transform="translate(0,0)"/>
<path d="" fill="#20B2AA" transform="translate(0,0)"/>
<path d="" fill="#20B2AA" transform="translate(0,0)"/>
<path d="" fill="#20B2AA" transform="translate(0,0)"/>
<path d="" fill="#20B2AA" transform="translate(0,0)"/>
<path d="" fill="#20B2AA" transform="translate(0,0)"/>
<path d="" fill="#20B2AA" transform="translate(0,0)"/>
<path d="" fill="#20B2AA" transform="translate(0,0)"/>
<path d="" fill="#20B2AA" transform="translate(0,0)"/>
<path d="" fill="#20B2AA" transform="translate(0,0)"/>
<path d="" fill="#20B2AA" transform="translate(0,0)"/>
<path d="" fill="#20B2AA" transform="translate(0,0)"/>
<path d="" fill="#20B2AA" transform="translate(0,0)"/>
<path d="" fill="#20B2AA" transform="translate(0,0)"/>
<path d="" fill="#20B2AA" transform="translate(0,0)"/>
<path d="" fill="#20B2AA" transform="translate(0,0)"/>
<path d="" fill="#20B2AA" transform="translate(0,0)"/>
<path d="" fill="#20B2AA" transform="translate(0,0)"/>
<path d="" fill="#20B2AA" transform="translate(0,0)"/>
<path d="" fill="#20B2AA" transform="translate(0,0)"/>
<path d="" fill="#20B2AA" transform="translate(0,0)"/>
<path d="" fill="#20B2AA" transform="translate(0,0)"/>
<path d="" fill="#20B2AA" transform="translate(0,0)"/>
<path d="" fill="#20B2AA" transform="translate(0,0)"/>
<path d="" fill="#20B2AA" transform="translate(0,0)"/>
<path d="" fill="#20B2AA" transform="translate(0,0)"/>
<path d="" fill="#20B2AA" transform="translate(0,0)"/>
<path d="" fill="#20B2AA" transform="translate(0,0)"/>
<path d="" fill="#20B2AA" transform="translate(0,0)"/>
<path d="" fill="#20B2AA" transform="translate(0,0)"/>
<path d="" fill="#20B2AA" transform="translate(0,0)"/>
<path d="" fill="#20B2AA" transform="translate(0,0)"/>
<path d="" fill="#20B2AA" transform="translate(0,0)"/>
<path d="" fill="#20B2AA" transform="translate(0,0)"/>
<path d="" fill="#20B2AA" transform="translate(0,0)"/>
<path d="" fill="#20B2AA" transform="translate(0,0)"/>
<path d="" fill="#20B2AA" transform="translate(0,0)"/>
<path d="" fill="#20B2AA" transform="translate(0,0)"/>
<path d="" fill="#20B2AA" transform="translate(0,0)"/>
<path d="" fill="#20B2AA" transform="translate(0,0)"/>
<path d="" fill="#20B2AA" transform="translate(0,0)"/>
<path d="" fill="#20B2AA" transform="translate(0,0)"/>
<path d="" fill="#20B2AA" transform="translate(0,0)"/>
<path d="" fill="#20B2AA" transform="translate(0,0)"/>
<path d="" fill="#20B2AA" transform="translate(0,0)"/>
<path d="" fill="#20B2AA" transform="translate(0,0)"/>
<path d="" fill="#20B2AA" transform="translate(0,0)"/>
<path d="" fill="#20B2AA" transform="translate(0,0)"/>
<path d="" fill="#20B2AA" transform="translate(0,0)"/>
<path d="" fill="#20B2AA" transform="translate(0,0)"/>
<path d="" fill="#20B2AA" transform="translate(0,0)"/>
<path d="" fill="#20B2AA" transform="translate(0,0)"/>
<path d="" fill="#20B2AA" transform="translate(0,0)"/>
<path d="" fill="#20B2AA" transform="translate(0,0)"/>
<path d="" fill="#20B2AA" transform="translate(0,0)"/>
<path d="" fill="#20B2AA" transform="translate(0,0)"/>
<path d="" fill="#20B2AA" transform="translate(0,0)"/>
<path d="" fill="#20B2AA" transform="translate(0,0)"/>
<path d="" fill="#20B2AA" transform="translate(0,0)"/>
<path d="" fill="#20B2AA" transform="translate(0,0)"/>
<path d="" fill="#20B2AA" transform="translate(0,0)"/>
<path d="" fill="#20B2AA" transform="translate(0,0)"/>
<path d="" fill="#20B2AA" transform="translate(0,0)"/>
<path d="" fill="#20B2AA" transform="translate(0,0)"/>
<path d="" fill="#20B2AA" transform="translate(0,0)"/>
<path d="" fill="#20B2AA" transform="translate(0,0)"/>
<path d="" fill="#20B2AA" transform="translate(0,0)"/>
<path d="" fill="#20B2AA" transform="translate(0,0)"/>
<path d="" fill="#20B2AA" transform="translate(0,0)"/>
<path d="" fill="#20B2AA" transform="translate(0,0)"/>
<path d="" fill="#20B2AA" transform="translate(0,0)"/>
<path d="" fill="#20B2AA" transform="translate(0,0)"/>
<path d="" fill="#20B2AA" transform="translate(0,0)"/>
<path d="" fill="#20B2AA" transform="translate(0,0)"/>
<path d="" fill="#20B2AA" transform="translate(0,0)"/>
<path d="" fill="#20B2AA" transform="translate(0,0)"/>
<path d="" fill="#20B2AA" transform="translate(0,0)"/>
<path d="" fill="#20B2AA" transform="translate(0,0)"/>
<path d="" fill="#20B2AA" transform="translate(0,0)"/>
<path d="" fill="#20B2AA" transform="translate(0,0)"/>
<path d="" fill="#20B2AA" transform="translate(0,0)"/>
<path d="" fill="#20B2AA" transform="translate(0,0)"/>
<path d="" fill="#20B2AA" transform="translate(0,0)"/>
<path d="" fill="#20B2AA" transform="translate(0,0)"/>
<path d="" fill="#20B2AA" transform="translate(0,0)"/>
<path d="" fill="#20B2AA" transform="translate(0,0)"/>
<path d="" fill="#20B2AA" transform="translate(0,0)"/>
<path d="" fill="#20B2AA" transform="translate(0,0)"/>
<path d="" fill="#20B2AA" transform="translate(0,0)"/>
<path d="" fill="#20B2AA" transform="translate(0,0)"/>
<path d="" fill="#20B2AA" transform="translate(0,0)"/>
<path d="" fill="#20B2AA" transform="translate(0,0)"/>
<path d="" fill="#20B2AA" transform="translate(0,0)"/>
<path d="" fill="#20B2AA" transform="translate(0,0)"/>
<path d="" fill="#20B2AA" transform="translate(0,0)"/>
<path d="" fill="#20B2AA" transform="translate(0,0)"/>
<path d="" fill="#20B2AA" transform="translate(0,0)"/>
<path d="" fill="#20B2AA" transform="translate(0,0)"/>
<path d="" fill="#20B2AA" transform="translate(0,0)"/>
<path d="" fill="#20B2AA" transform="translate(0,0)"/>
<path d="" fill="#20B2AA" transform="translate(0,0)"/>
<path d="" fill="#20B2AA" transform="translate(0,0)"/>
<path d="" fill="#20B2AA" transform="translate(0,0)"/>
<path d="" fill="#20B2AA" transform="translate(0,0)"/>
<path d="" fill="#20B2AA" transform="translate(0,0)"/>
<path d="" fill="#20B2AA" transform="translate(0,0)"/>
<path d="" fill="#20B2AA" transform="translate(0,0)"/>
<path d="" fill="#20B2AA" transform="translate(0,0)"/>
<path d="" fill="#20B2AA" transform="translate(0,0)"/>
<path d="" fill="#20B2AA" transform="translate(0,0)"/>
<path d="" fill="#20B2AA" transform="translate(0,0)"/>
<path d="" fill="#20B2AA" transform="translate(0,0)"/>
<path d="" fill="#20B2AA" transform="translate(0,0)"/>
<path d="" fill="#20B2AA" transform="translate(0,0)"/>
<path d="" fill="#20B2AA" transform="translate(0,0)"/>
<path d="" fill="#20B2AA" transform="translate(0,0)"/>
<path d="" fill="#20B2AA" transform="translate(0,0)"/>
<path d="" fill="#20B2AA" transform="translate(0,0)"/>
<path d="" fill="#20B2AA" transform="translate(0,0)"/>
<path d="" fill="#20B2AA" transform="translate(0,0)"/>
<path d="" fill="#20B2AA" transform="translate(0,0)"/>
<path d="" fill="#20B2AA" transform="translate(0,0)"/>
<path d="" fill="#20B2AA" transform="translate(0,0)"/>
<path d="" fill="#20B2AA" transform="translate(0,0)"/>
<path d="" fill="#20B2AA" transform="translate(0,0)"/>
<path d="" fill="#20B2AA" transform="translate(0,0)"/>
<path d="" fill="#20B2AA" transform="translate(0,0)"/>
<path d="" fill="#20B2AA" transform="translate(0,0)"/>
<path d="" fill="#20B2AA" transform="translate(0,0)"/>
<path d="" fill="#20B2AA" transform="translate(0,0)"/>
<path d="" fill="#20B2AA" transform="translate(0,0)"/>
<path d="" fill="#20B2AA" transform="translate(0,0)"/>
<path d="" fill="#20B2AA" transform="translate(0,0)"/>
<path d="" fill="#20B2AA" transform="translate(0,0)"/>
<path d="" fill="#20B2AA" transform="translate(0,0)"/>
<path d="" fill="#20B2AA" transform="translate(0,0)"/>
<path d="" fill="#20B2AA" transform="translate(0,0)"/>
<path d="" fill="#20B2AA" transform="translate(0,0)"/>
<path d="" fill="#20B2AA" transform="translate(0,0)"/>
<path d="" fill="#20B2AA" transform="translate(0,0)"/>
<path d="" fill="#20B2AA" transform="translate(0,0)"/>
<path d="" fill="#20B2AA" transform="translate(0,0)"/>
<path d="" fill="#20B2AA" transform="translate(0,0)"/>
<path d="" fill="#20B2AA" transform="translate(0,0)"/>
<path d="" fill="#20B2AA" transform="translate(0,0)"/>
<path d="" fill="#20B2AA" transform="translate(0,0)"/>
<path d="" fill="#20B2AA" transform="translate(0,0)"/>
<path d="" fill="#20B2AA" transform="translate(0,0)"/>
<path d="" fill="#20B2AA" transform="translate(0,0)"/>
<path d="" fill="#20B2AA" transform="translate(0,0)"/>
<path d="" fill="#20B2AA" transform="translate(0,0)"/>
<path d="" fill="#20B2AA" transform="translate(0,0)"/>
<path d="" fill="#20B2AA" transform="translate(0,0)"/>
<path d="" fill="#20B2AA" transform="translate(0,0)"/>
<path d="" fill="#20B2AA" transform="translate(0,0)"/>
<path d="" fill="#20B2AA" transform="translate(0,0)"/>
<path d="" fill="#20B2AA" transform="translate(0,0)"/>
<path d="" fill="#20B2AA" transform="translate(0,0)"/>
<path d="" fill="#20B2AA" transform="translate(0,0)"/>
<path d="" fill="#20B2AA" transform="translate(0,0)"/>
<path d="" fill="#20B2AA" transform="translate(0,0)"/>
<path d="" fill="#20B2AA" transform="translate(0,0)"/>
<path d="" fill="#20B2AA" transform="translate(0,0)"/>
<path d="" fill="#20B2AA" transform="translate(0,0)"/>
<path d="" fill="#20B2AA" transform="translate(0,0)"/>
<path d="" fill="#20B2AA" transform="translate(0,0)"/>
<path d="" fill="#20B2AA" transform="translate(0,0)"/>
<path d="" fill="#20B2AA" transform="translate(0,0)"/>
<path d="" fill="#20B2AA" transform="translate(0,0)"/>
<path d="" fill="#20B2AA" transform="translate(0,0)"/>
<path d="" fill="#20B2AA" transform="translate(0,0)"/>
<path d="" fill="#20B2AA" transform="translate(0,0)"/>
<path d="" fill="#20B2AA" transform="translate(0,0)"/>
<path d="" fill="#20B2AA" transform="translate(0,0)"/>
<path d="" fill="#20B2AA" transform="translate(0,0)"/>
<path d="" fill="#20B2AA" transform="translate(0,0)"/>
<path d="" fill="#20B2AA" transform="translate(0,0)"/>
<path d="" fill="#20B2AA" transform="translate(0,0)"/>
<path d="" fill="#20B2AA" transform="translate(0,0)"/>
<path d="" fill="#20B2AA" transform="translate(0,0)"/>
<path d="" fill="#20B2AA" transform="translate(0,0)"/>
<path d="" fill="#20B2AA" transform="translate(0,0)"/>
<path d="" fill="#20B2AA" transform="translate(0,0)"/>
<path d="" fill="#20B2AA" transform="translate(0,0)"/>
<path d="" fill="#20B2AA" transform="translate(0,0)"/>
<path d="" fill="#20B2AA" transform="translate(0,0)"/>
<path d="" fill="#20B2AA" transform="translate(0,0)"/>
<path d="" fill="#20B2AA" transform="translate(0,0)"/>
<path d="" fill="#20B2AA" transform="translate(0,0)"/>
<path d="" fill="#20B2AA" transform="translate(0,0)"/>
<path d="" fill="#20B2AA" transform="translate(0,0)"/>
<path d="" fill="#20B2AA" transform="translate(0,0)"/>
<path d="" fill="#20B2AA" transform="translate(0,0)"/>
<path d="" fill="#20B2AA" transform="translate(0,0)"/>
<path d="" fill="#20B2AA" transform="translate(0,0)"/>
<path d="" fill="#20B2AA" transform="translate(0,0)"/>
<path d="" fill="#20B2AA" transform="translate(0,0)"/>
<path d="" fill="#20B2AA" transform="translate(0,0)"/>
<path d="" fill="#20B2AA" transform="translate(0,0)"/>
<path d="" fill="#20B2AA" transform="translate(0,0)"/>
<path d="" fill="#20B2AA" transform="translate(0,0)"/>
<path d="" fill="#20B2AA" transform="translate(0,0)"/>
<path d="" fill="#20B2AA" transform="translate(0,0)"/>
<path d="" fill="#20B2AA" transform="translate(0,0)"/>
<path d="" fill="#20B2AA" transform="translate(0,0)"/>
<path d="" fill="#20B2AA" transform="translate(0,0)"/>
<path d="" fill="#20B2AA" transform="translate(0,0)"/>
<path d="" fill="#20B2AA" transform="translate(0,0)"/>
<path d="" fill="#20B2AA" transform="translate(0,0)"/>
<path d="" fill="#20B2AA" transform="translate(0,0)"/>
<path d="" fill="#20B2AA" transform="translate(0,0)"/>
<path d="" fill="#20B2AA" transform="translate(0,0)"/>
<path d="" fill="#20B2AA" transform="translate(0,0)"/>
<path d="" fill="#20B2AA" transform="translate(0,0)"/>
<path d="" fill="#20B2AA" transform="translate(0,0)"/>
<path d="" fill="#20B2AA" transform="translate(0,0)"/>
<path d="" fill="#20B2AA" transform="translate(0,0)"/>
<path d="" fill="#20B2AA" transform="translate(0,0)"/>
<path d="" fill="#20B2AA" transform="translate(0,0)"/>
<path d="" fill="#20B2AA" transform="translate(0,0)"/>
<path d="" fill="#20B2AA" transform="translate(0,0)"/>
<path d="" fill="#20B2AA" transform="translate(0,0)"/>
<path d="" fill="#20B2AA" transform="translate(0,0)"/>
<path d="" fill="#20B2AA" transform="translate(0,0)"/>
<path d="" fill="#20B2AA" transform="translate(0,0)"/>
<path d="" fill="#20B2AA" transform="translate(0,0)"/>
<path d="" fill="#20B2AA" transform="translate(0,0)"/>
<path d="" fill="#20B2AA" transform="translate(0,0)"/>
<path d="" fill="#20B2AA" transform="translate(0,0)"/>
<path d="" fill="#20B2AA" transform="translate(0,0)"/>
<path d="" fill="#20B2AA" transform="translate(0,0)"/>
<path d="" fill="#20B2AA" transform="translate(0,0)"/>
<path d="" fill="#20B2AA" transform="translate(0,0)"/>
<path d="" fill="#20B2AA" transform="translate(0,0)"/>
<path d="" fill="#20B2AA" transform="translate(0,0)"/>
<path d="" fill="#20B2AA" transform="translate(0,0)"/>
<path d="" fill="#20B2AA" transform="translate(0,0)"/>
<path d="" fill="#20B2AA" transform="translate(0,0)"/>
<path d="" fill="#20B2AA" transform="translate(0,0)"/>
<path d="" fill="#20B2AA" transform="translate(0,0)"/>
<path d="" fill="#20B2AA" transform="translate(0,0)"/>
<path d="" fill="#20B2AA" transform="translate(0,0)"/>
<path d="" fill="#20B2AA" transform="translate(0,0)"/>
<path d="" fill="#20B2AA" transform="translate(0,0)"/>
<path d="" fill="#20B2AA" transform="translate(0,0)"/>
<path d="" fill="#20B2AA" transform="translate(0,0)"/>
<path d="" fill="#20B2AA" transform="translate(0,0)"/>
<path d="" fill="#20B2AA" transform="translate(0,0)"/>
<path d="" fill="#20B2AA" transform="translate(0,0)"/>
<path d="" fill="#20B2AA" transform="translate(0,0)"/>
<path d="" fill="#20B2AA" transform="translate(0,0)"/>
<path d="" fill="#20B2AA" transform="translate(0,0)"/>
<path d="" fill="#20B2AA" transform="translate(0,0)"/>
<path d="" fill="#20B2AA" transform="translate(0,0)"/>
<path d="" fill="#20B2AA" transform="translate(0,0)"/>
<path d="" fill="#20B2AA" transform="translate(0,0)"/>
<path d="" fill="#20B2AA" transform="translate(0,0)"/>
<path d="" fill="#20B2AA" transform="translate(0,0)"/>
<path d="" fill="#20B2AA" transform="translate(0,0)"/>
<path d="" fill="#20B2AA" transform="translate(0,0)"/>
<path d="" fill="#20B2AA" transform="translate(0,0)"/>
<path d="" fill="#20B2AA" transform="translate(0,0)"/>
<path d="" fill="#20B2AA" transform="translate(0,0)"/>
<path d="" fill="#20B2AA" transform="translate(0,0)"/>
<path d="" fill="#20B2AA" transform="translate(0,0)"/>
<path d="" fill="#20B2AA" transform="translate(0,0)"/>
<path d="" fill="#20B2AA" transform="translate(0,0)"/>
<path d="" fill="#20B2AA" transform="translate(0,0)"/>
<path d="" fill="#20B2AA" transform="translate(0,0)"/>
<path d="" fill="#20B2AA" transform="translate(0,0)"/>
<path d="" fill="#20B2AA" transform="translate(0,0)"/>
<path d="" fill="#20B2AA" transform="translate(0,0)"/>
<path d="" fill="#20B2AA" transform="translate(0,0)"/>
<path d="" fill="#20B2AA" transform="translate(0,0)"/>
<path d="" fill="#20B2AA" transform="translate(0,0)"/>
<path d="" fill="#20B2AA" transform="translate(0,0)"/>
<path d="" fill="#20B2AA" transform="translate(0,0)"/>
<path d="" fill="#20B2AA" transform="translate(0,0)"/>
<path d="" fill="#20B2AA" transform="translate(0,0)"/>
<path d="" fill="#20B2AA" transform="translate(0,0)"/>
<path d="" fill="#20B2AA" transform="translate(0,0)"/>
<path d="" fill="#20B2AA" transform="translate(0,0)"/>
<path d="" fill="#20B2AA" transform="translate(0,0)"/>
<path d="" fill="#20B2AA" transform="translate(0,0)"/>
<path d="" fill="#20B2AA" transform="translate(0,0)"/>
<path d="" fill="#20B2AA" transform="translate(0,0)"/>
<path d="" fill="#20B2AA" transform="translate(0,0)"/>
<path d="" fill="#20B2AA" transform="translate(0,0)"/>
<path d="" fill="#20B2AA" transform="translate(0,0)"/>
<path d="" fill="#20B2AA" transform="translate(0,0)"/>
<path d="" fill="#20B2AA" transform="translate(0,0)"/>
<path d="" fill="#20B2AA" transform="translate(0,0)"/>
<path d="" fill="#20B2AA" transform="translate(0,0)"/>
<path d="" fill="#20B2AA" transform="translate(0,0)"/>
<path d="" fill="#20B2AA" transform="translate(0,0)"/>
<path d="" fill="#20B2AA" transform="translate(0,0)"/>
<path d="" fill="#20B2AA" transform="translate(0,0)"/>
<path d="" fill="#20B2AA" transform="translate(0,0)"/>
<path d="" fill="#20B2AA" transform="translate(0,0)"/>
<path d="" fill="#20B2AA" transform="translate(0,0)"/>
<path d="" fill="#20B2AA" transform="translate(0,0)"/>
<path d="" fill="#20B2AA" transform="translate(0,0)"/>
<path d="" fill="#20B2AA" transform="translate(0,0)"/>
<path d="" fill="#20B2AA" transform="translate(0,0)"/>
<path d="" fill="#20B2AA" transform="translate(0,0)"/>
<path d="" fill="#20B2AA" transform="translate(0,0)"/>
<path d="" fill="#20B2AA" transform="translate(0,0)"/>
<path d="" fill="#20B2AA" transform="translate(0,0)"/>
<path d="" fill="#20B2AA" transform="translate(0,0)"/>
<path d="" fill="#20B2AA" transform="translate(0,0)"/>
<path d="" fill="#20B2AA" transform="translate(0,0)"/>
<path d="" fill="#20B2AA" transform="translate(0,0)"/>
<path d="" fill="#20B2AA" transform="translate(0,0)"/>
<path d="" fill="#20B2AA" transform="translate(0,0)"/>
<path d="" fill="#20B2AA" transform="translate(0,0)"/>
<path d="" fill="#20B2AA" transform="translate(0,0)"/>
<path d="" fill="#20B2AA" transform="translate(0,0)"/>
<path d="" fill="#20B2AA" transform="translate(0,0)"/>
<path d="" fill="#20B2AA" transform="translate(0,0)"/>
<path d="" fill="#20B2AA" transform="translate(0,0)"/>
<path d="" fill="#20B2AA" transform="translate(0,0)"/>
<path d="" fill="#20B2AA" transform="translate(0,0)"/>
<path d="" fill="#20B2AA" transform="translate(0,0)"/>
<path d="" fill="#20B2AA" transform="translate(0,0)"/>
<path d="" fill="#20B2AA" transform="translate(0,0)"/>
<path d="" fill="#20B2AA" transform="translate(0,0)"/>
<path d="" fill="#20B2AA" transform="translate(0,0)"/>
<path d="" fill="#20B2AA" transform="translate(0,0)"/>
<path d="" fill="#20B2AA" transform="translate(0,0)"/>
<path d="" fill="#20B2AA" transform="translate(0,0)"/>
<path d="" fill="#20B2AA" transform="translate(0,0)"/>
<path d="" fill="#20B2AA" transform="translate(0,0)"/>
<path d="" fill="#20B2AA" transform="translate(0,0)"/>
<path d="" fill="#20B2AA" transform="translate(0,0)"/>
<path d="" fill="#20B2AA" transform="translate(0,0)"/>
<path d="" fill="#20B2AA" transform="translate(0,0)"/>
<path d="" fill="#20B2AA" transform="translate(0,0)"/>
<path d="" fill="#20B2AA" transform="translate(0,0)"/>
<path d="" fill="#20B2AA" transform="translate(0,0)"/>
<path d="" fill="#20B2AA" transform="translate(0,0)"/>
<path d="" fill="#20B2AA" transform="translate(0,0)"/>
<path d="" fill="#20B2AA" transform="translate(0,0)"/>
<path d="" fill="#20B2AA" transform="translate(0,0)"/>
<path d="" fill="#20B2AA" transform="translate(0,0)"/>
<path d="" fill="#20B2AA" transform="translate(0,0)"/>
<path d="" fill="#20B2AA" transform="translate(0,0)"/>
<path d="" fill="#20B2AA" transform="translate(0,0)"/>
<path d="" fill="#20B2AA" transform="translate(0,0)"/>
<path d="" fill="#20B2AA" transform="translate(0,0)"/>
<path d="" fill="#20B2AA" transform="translate(0,0)"/>
<path d="" fill="#20B2AA" transform="translate(0,0)"/>
<path d="" fill="#20B2AA" transform="translate(0,0)"/>
<path d="" fill="#20B2AA" transform="translate(0,0)"/>
<path d="" fill="#20B2AA" transform="translate(0,0)"/>
<path d="" fill="#20B2AA" transform="translate(0,0)"/>
<path d="" fill="#20B2AA" transform="translate(0,0)"/>
<path d="" fill="#20B2AA" transform="translate(0,0)"/>
<path d="" fill="#20B2AA" transform="translate(0,0)"/>
<path d="" fill="#20B2AA" transform="translate(0,0)"/>
<path d="" fill="#20B2AA" transform="translate(0,0)"/>
<path d="" fill="#20B2AA" transform="translate(0,0)"/>
<path d="" fill="#20B2AA" transform="translate(0,0)"/>
<path d="" fill="#20B2AA" transform="translate(0,0)"/>
<path d="" fill="#20B2AA" transform="translate(0,0)"/>
<path d="" fill="#20B2AA" transform="translate(0,0)"/>
<path d="" fill="#20B2AA" transform="translate(0,0)"/>
<path d="" fill="#20B2AA" transform="translate(0,0)"/>
<path d="" fill="#20B2AA" transform="translate(0,0)"/>
<path d="" fill="#20B2AA" transform="translate(0,0)"/>
<path d="" fill="#20B2AA" transform="translate(0,0)"/>
<path d="" fill="#20B2AA" transform="translate(0,0)"/>
<path d="" fill="#20B2AA" transform="translate(0,0)"/>
<path d="" fill="#20B2AA" transform="translate(0,0)"/>
<path d="" fill="#20B2AA" transform="translate(0,0)"/>
<path d="" fill="#20B2AA" transform="translate(0,0)"/>
<path d="" fill="#20B2AA" transform="translate(0,0)"/>
<path d="" fill="#20B2AA" transform="translate(0,0)"/>
<path d="" fill="#20B2AA" transform="translate(0,0)"/>
<path d="" fill="#20B2AA" transform="translate(0,0)"/>
<path d="" fill="#20B2AA" transform="translate(0,0)"/>
<path d="" fill="#20B2AA" transform="translate(0,0)"/>
<path d="" fill="#20B2AA" transform="translate(0,0)"/>
<path d="" fill="#20B2AA" transform="translate(0,0)"/>
<path d="" fill="#20B2AA" transform="translate(0,0)"/>
<path d="" fill="#20B2AA" transform="translate(0,0)"/>
<path d="" fill="#20B2AA" transform="translate(0,0)"/>
<path d="" fill="#20B2AA" transform="translate(0,0)"/>
<path d="" fill="#20B2AA" transform="translate(0,0)"/>
<path d="" fill="#20B2AA" transform="translate(0,0)"/>
<path d="" fill="#20B2AA" transform="translate(0,0)"/>
<path d="" fill="#20B2AA" transform="translate(0,0)"/>
<path d="" fill="#20B2AA" transform="translate(0,0)"/>
<path d="" fill="#20B2AA" transform="translate(0,0)"/>
<path d="" fill="#20B2AA" transform="translate(0,0)"/>
<path d="" fill="#20B2AA" transform="translate(0,0)"/>
<path d="" fill="#20B2AA" transform="translate(0,0)"/>
<path d="" fill="#20B2AA" transform="translate(0,0)"/>
<path d="" fill="#20B2AA" transform="translate(0,0)"/>
<path d="" fill="#20B2AA" transform="translate(0,0)"/>
<path d="" fill="#20B2AA" transform="translate(0,0)"/>
<path d="" fill="#20B2AA" transform="translate(0,0)"/>
<path d="" fill="#20B2AA" transform="translate(0,0)"/>
<path d="" fill="#20B2AA" transform="translate(0,0)"/>
<path d="" fill="#20B2AA" transform="translate(0,0)"/>
<path d="" fill="#20B2AA" transform="translate(0,0)"/>
<path d="" fill="#20B2AA" transform="translate(0,0)"/>
<path d="" fill="#20B2AA" transform="translate(0,0)"/>
<path d="" fill="#20B2AA" transform="translate(0,0)"/>
<path d="" fill="#20B2AA" transform="translate(0,0)"/>
<path d="" fill="#20B2AA" transform="translate(0,0)"/>
<path d="" fill="#20B2AA" transform="translate(0,0)"/>
<path d="" fill="#20B2AA" transform="translate(0,0)"/>
<path d="" fill="#20B2AA" transform="translate(0,0)"/>
<path d="" fill="#20B2AA" transform="translate(0,0)"/>
<path d="" fill="#20B2AA" transform="translate(0,0)"/>
<path d="" fill="#20B2AA" transform="translate(0,0)"/>
<path d="" fill="#20B2AA" transform="translate(0,0)"/>
<path d="" fill="#20B2AA" transform="translate(0,0)"/>
<path d="" fill="#20B2AA" transform="translate(0,0)"/>
<path d="" fill="#20B2AA" transform="translate(0,0)"/>
<path d="" fill="#20B2AA" transform="translate(0,0)"/>
<path d="" fill="#20B2AA" transform="translate(0,0)"/>
<path d="" fill="#20B2AA" transform="translate(0,0)"/>
<path d="" fill="#20B2AA" transform="translate(0,0)"/>
<path d="" fill="#20B2AA" transform="translate(0,0)"/>
<path d="" fill="#20B2AA" transform="translate(0,0)"/>
<path d="" fill="#20B2AA" transform="translate(0,0)"/>
<path d="" fill="#20B2AA" transform="translate(0,0)"/>
<path d="" fill="#20B2AA" transform="translate(0,0)"/>
<path d="" fill="#20B2AA" transform="translate(0,0)"/>
<path d="" fill="#20B2AA" transform="translate(0,0)"/>
<path d="" fill="#20B2AA" transform="translate(0,0)"/>
<path d="" fill="#20B2AA" transform="translate(0,0)"/>
<path d="" fill="#20B2AA" transform="translate(0,0)"/>
<path d="" fill="#20B2AA" transform="translate(0,0)"/>
<path d="" fill="#20B2AA" transform="translate(0,0)"/>
<path d="" fill="#20B2AA" transform="translate(0,0)"/>
<path d="" fill="#20B2AA" transform="translate(0,0)"/>
<path d="" fill="#20B2AA" transform="translate(0,0)"/>
<path d="" fill="#20B2AA" transform="translate(0,0)"/>
<path d="" fill="#20B2AA" transform="translate(0,0)"/>
<path d="" fill="#20B2AA" transform="translate(0,0)"/>
<path d="" fill="#20B2AA" transform="translate(0,0)"/>
<path d="" fill="#20B2AA" transform="translate(0,0)"/>
<path d="" fill="#20B2AA" transform="translate(0,0)"/>
<path d="" fill="#20B2AA" transform="translate(0,0)"/>
<path d="" fill="#20B2AA" transform="translate(0,0)"/>
<path d="" fill="#20B2AA" transform="translate(0,0)"/>
<path d="" fill="#20B2AA" transform="translate(0,0)"/>
<path d="" fill="#20B2AA" transform="translate(0,0)"/>
<path d="" fill="#20B2AA" transform="translate(0,0)"/>
<path d="" fill="#20B2AA" transform="translate(0,0)"/>
<path d="" fill="#20B2AA" transform="translate(0,0)"/>
<path d="" fill="#20B2AA" transform="translate(0,0)"/>
<path d="" fill="#20B2AA" transform="translate(0,0)"/>
<path d="" fill="#20B2AA" transform="translate(0,0)"/>
<path d="" fill="#20B2AA" transform="translate(0,0)"/>
<path d="" fill="#20B2AA" transform="translate(0,0)"/>
<path d="" fill="#20B2AA" transform="translate(0,0)"/>
<path d="" fill="#20B2AA" transform="translate(0,0)"/>
<path d="" fill="#20B2AA" transform="translate(0,0)"/>
<path d="" fill="#20B2AA" transform="translate(0,0)"/>
<path d="" fill="#20B2AA" transform="translate(0,0)"/>
<path d="" fill="#20B2AA" transform="translate(0,0)"/>
<path d="" fill="#20B2AA" transform="translate(0,0)"/>
<path d="" fill="#20B2AA" transform="translate(0,0)"/>
<path d="" fill="#20B2AA" transform="translate(0,0)"/>
<path d="" fill="#20B2AA" transform="translate(0,0)"/>
<path d="" fill="#20B2AA" transform="translate(0,0)"/>
<path d="" fill="#20B2AA" transform="translate(0,0)"/>
<path d="" fill="#20B2AA" transform="translate(0,0)"/>
<path d="" fill="#20B2AA" transform="translate(0,0)"/>
<path d="" fill="#20B2AA" transform="translate(0,0)"/>
<path d="" fill="#20B2AA" transform="translate(0,0)"/>
<path d="" fill="#20B2AA" transform="translate(0,0)"/>
<path d="" fill="#20B2AA" transform="translate(0,0)"/>
<path d="" fill="#20B2AA" transform="translate(0,0)"/>
<path d="" fill="#20B2AA" transform="translate(0,0)"/>
<path d="" fill="#20B2AA" transform="translate(0,0)"/>
<path d="" fill="#20B2AA" transform="translate(0,0)"/>
<path d="" fill="#20B2AA" transform="translate(0,0)"/>
<path d="" fill="#20B2AA" transform="translate(0,0)"/>
<path d="" fill="#20B2AA" transform="translate(0,0)"/>
<path d="" fill="#20B2AA" transform="translate(0,0)"/>
<path d="" fill="#20B2AA" transform="translate(0,0)"/>
<path d="" fill="#20B2AA" transform="translate(0,0)"/>
<path d="" fill="#20B2AA" transform="translate(0,0)"/>
<path d="" fill="#20B2AA" transform="translate(0,0)"/>
<path d="" fill="#20B2AA" transform="translate(0,0)"/>
<path d="" fill="#20B2AA" transform="translate(0,0)"/>
<path d="" fill="#20B2AA" transform="translate(0,0)"/>
<path d="" fill="#20B2AA" transform="translate(0,0)"/>
<path d="" fill="#20B2AA" transform="translate(0,0)"/>
<path d="" fill="#20B2AA" transform="translate(0,0)"/>
<path d="" fill="#20B2AA" transform="translate(0,0)"/>
<path d="" fill="#20B2AA" transform="translate(0,0)"/>
<path d="" fill="#20B2AA" transform="translate(0,0)"/>
<path d="" fill="#20B2AA" transform="translate(0,0)"/>
<path d="" fill="#20B2AA" transform="translate(0,0)"/>
<path d="" fill="#20B2AA" transform="translate(0,0)"/>
<path d="" fill="#20B2AA" transform="translate(0,0)"/>
<path d="" fill="#20B2AA" transform="translate(0,0)"/>
<path d="" fill="#20B2AA" transform="translate(0,0)"/>
<path d="" fill="#20B2AA" transform="translate(0,0)"/>
<path d="" fill="#20B2AA" transform="translate(0,0)"/>
<path d="" fill="#20B2AA" transform="translate(0,0)"/>
<path d="" fill="#20B2AA" transform="translate(0,0)"/>
<path d="" fill="#20B2AA" transform="translate(0,0)"/>
<path d="" fill="#20B2AA" transform="translate(0,0)"/>
<path d="" fill="#20B2AA" transform="translate(0,0)"/>
<path d="" fill="#20B2AA" transform="translate(0,0)"/>
<path d="" fill="#20B2AA" transform="translate(0,0)"/>
<path d="" fill="#20B2AA" transform="translate(0,0)"/>
<path d="" fill="#20B2AA" transform="translate(0,0)"/>
<path d="" fill="#20B2AA" transform="translate(0,0)"/>
<path d="" fill="#20B2AA" transform="translate(0,0)"/>
<path d="" fill="#20B2AA" transform="translate(0,0)"/>
<path d="" fill="#20B2AA" transform="translate(0,0)"/>
<path d="" fill="#20B2AA" transform="translate(0,0)"/>
<path d="" fill="#20B2AA" transform="translate(0,0)"/>
<path d="" fill="#20B2AA" transform="translate(0,0)"/>
<path d="" fill="#20B2AA" transform="translate(0,0)"/>
<path d="" fill="#20B2AA" transform="translate(0,0)"/>
<path d="" fill="#20B2AA" transform="translate(0,0)"/>
<path d="" fill="#20B2AA" transform="translate(0,0)"/>
<path d="" fill="#20B2AA" transform="translate(0,0)"/>
<path d="" fill="#20B2AA" transform="translate(0,0)"/>
<path d="" fill="#20B2AA" transform="translate(0,0)"/>
<path d="" fill="#20B2AA" transform="translate(0,0)"/>
<path d="" fill="#20B2AA" transform="translate(0,0)"/>
<path d="" fill="#20B2AA" transform="translate(0,0)"/>
<path d="" fill="#20B2AA" transform="translate(0,0)"/>
<path d="" fill="#20B2AA" transform="translate(0,0)"/>
<path d="" fill="#20B2AA" transform="translate(0,0)"/>
<path d="" fill="#20B2AA" transform="translate(0,0)"/>
<path d="" fill="#20B2AA" transform="translate(0,0)"/>
<path d="" fill="#20B2AA" transform="translate(0,0)"/>
<path d="" fill="#20B2AA" transform="translate(0,0)"/>
<path d="" fill="#20B2AA" transform="translate(0,0)"/>
<path d="" fill="#20B2AA" transform="translate(0,0)"/>
<path d="" fill="#20B2AA" transform="translate(0,0)"/>
<path d="" fill="#20B2AA" transform="translate(0,0)"/>
<path d="" fill="#20B2AA" transform="translate(0,0)"/>
<path d="" fill="#20B2AA" transform="translate(0,0)"/>
<path d="" fill="#20B2AA" transform="translate(0,0)"/>
<path d="" fill="#20B2AA" transform="translate(0,0)"/>
<path d="" fill="#20B2AA" transform="translate(0,0)"/>
<path d="" fill="#20B2AA" transform="translate(0,0)"/>
<path d="" fill="#20B2AA" transform="translate(0,0)"/>
<path d="" fill="#20B2AA" transform="translate(0,0)"/>
<path d="" fill="#20B2AA" transform="translate(0,0)"/>
<path d="" fill="#20B2AA" transform="translate(0,0)"/>
<path d="" fill="#20B2AA" transform="translate(0,0)"/>
<path d="" fill="#20B2AA" transform="translate(0,0)"/>
<path d="" fill="#20B2AA" transform="translate(0,0)"/>
<path d="" fill="#20B2AA" transform="translate(0,0)"/>
<path d="" fill="#20B2AA" transform="translate(0,0)"/>
<path d="" fill="#20B2AA" transform="translate(0,0)"/>
<path d="" fill="#20B2AA" transform="translate(0,0)"/>
<path d="" fill="#20B2AA" transform="translate(0,0)"/>
<path d="" fill="#20B2AA" transform="translate(0,0)"/>
<path d="" fill="#20B2AA" transform="translate(0,0)"/>
<path d="" fill="#20B2AA" transform="translate(0,0)"/>
<path d="" fill="#20B2AA" transform="translate(0,0)"/>
<path d="" fill="#20B2AA" transform="translate(0,0)"/>
<path d="" fill="#20B2AA" transform="translate(0,0)"/>
<path d="" fill="#20B2AA" transform="translate(0,0)"/>
<path d="" fill="#20B2AA" transform="translate(0,0)"/>
<path d="" fill="#20B2AA" transform="translate(0,0)"/>
<path d="" fill="#20B2AA" transform="translate(0,0)"/>
<path d="" fill="#20B2AA" transform="translate(0,0)"/>
<path d="" fill="#20B2AA" transform="translate(0,0)"/>
<path d="" fill="#20B2AA" transform="translate(0,0)"/>
<path d="" fill="#20B2AA" transform="translate(0,0)"/>
<path d="" fill="#20B2AA" transform="translate(0,0)"/>
<path d="" fill="#20B2AA" transform="translate(0,0)"/>
<path d="" fill="#20B2AA" transform="translate(0,0)"/>
<path d="" fill="#20B2AA" transform="translate(0,0)"/>
<path d="" fill="#20B2AA" transform="translate(0,0)"/>
<path d="" fill="#20B2AA" transform="translate(0,0)"/>
<path d="" fill="#20B2AA" transform="translate(0,0)"/>
<path d="" fill="#20B2AA" transform="translate(0,0)"/>
<path d="" fill="#20B2AA" transform="translate(0,0)"/>
<path d="" fill="#20B2AA" transform="translate(0,0)"/>
<path d="" fill="#20B2AA" transform="translate(0,0)"/>
<path d="" fill="#20B2AA" transform="translate(0,0)"/>
<path d="" fill="#20B2AA" transform="translate(0,0)"/>
<path d="" fill="#20B2AA" transform="translate(0,0)"/>
<path d="" fill="#20B2AA" transform="translate(0,0)"/>
<path d="" fill="#20B2AA" transform="translate(0,0)"/>
<path d="" fill="#20B2AA" transform="translate(0,0)"/>
<path d="" fill="#20B2AA" transform="translate(0,0)"/>
<path d="" fill="#20B2AA" transform="translate(0,0)"/>
<path d="" fill="#20B2AA" transform="translate(0,0)"/>
<path d="" fill="#20B2AA" transform="translate(0,0)"/>
<path d="" fill="#20B2AA" transform="translate(0,0)"/>
<path d="" fill="#20B2AA" transform="translate(0,0)"/>
<path d="" fill="#20B2AA" transform="translate(0,0)"/>
<path d="" fill="#20B2AA" transform="translate(0,0)"/>
<path d="" fill="#20B2AA" transform="translate(0,0)"/>
<path d="" fill="#20B2AA" transform="translate(0,0)"/>
<path d="" fill="#20B2AA" transform="translate(0,0)"/>
<path d="" fill="#20B2AA" transform="translate(0,0)"/>
<path d="" fill="#20B2AA" transform="translate(0,0)"/>
<path d="" fill="#20B2AA" transform="translate(0,0)"/>
<path d="" fill="#20B2AA" transform="translate(0,0)"/>
<path d="" fill="#20B2AA" transform="translate(0,0)"/>
<path d="" fill="#20B2AA" transform="translate(0,0)"/>
<path d="" fill="#20B2AA" transform="translate(0,0)"/>
<path d="" fill="#20B2AA" transform="translate(0,0)"/>
<path d="" fill="#20B2AA" transform="translate(0,0)"/>
<path d="" fill="#20B2AA" transform="translate(0,0)"/>
<path d="" fill="#20B2AA" transform="translate(0,0)"/>
<path d="" fill="#20B2AA" transform="translate(0,0)"/>
<path d="" fill="#20B2AA" transform="translate(0,0)"/>
<path d="" fill="#20B2AA" transform="translate(0,0)"/>
<path d="" fill="#20B2AA" transform="translate(0,0)"/>
<path d="" fill="#20B2AA" transform="translate(0,0)"/>
<path d="" fill="#20B2AA" transform="translate(0,0)"/>
<path d="" fill="#20B2AA" transform="translate(0,0)"/>
<path d="" fill="#20B2AA" transform="translate(0,0)"/>
<path d="" fill="#20B2AA" transform="translate(0,0)"/>
<path d="" fill="#20B2AA" transform="translate(0,0)"/>
<path d="" fill="#20B2AA" transform="translate(0,0)"/>
<path d="" fill="#20B2AA" transform="translate(0,0)"/>
<path d="" fill="#20B2AA" transform="translate(0,0)"/>
<path d="" fill="#20B2AA" transform="translate(0,0)"/>
<path d="" fill="#20B2AA" transform="translate(0,0)"/>
<path d="" fill="#20B2AA" transform="translate(0,0)"/>
<path d="" fill="#20B2AA" transform="translate(0,0)"/>
<path d="" fill="#20B2AA" transform="translate(0,0)"/>
</svg>